<?xml version="1.0" encoding="utf-8" standalone="no"?>
<!DOCTYPE svg PUBLIC "-//W3C//DTD SVG 1.1//EN"
  "http://www.w3.org/Graphics/SVG/1.1/DTD/svg11.dtd">
<svg height="331.674375pt" version="1.1" viewBox="0 0 556.234375 331.674375" width="556.234375pt" xmlns="http://www.w3.org/2000/svg" xmlns:xlink="http://www.w3.org/1999/xlink">
 <metadata>
  <rdf:RDF xmlns:cc="http://creativecommons.org/ns#" xmlns:dc="http://purl.org/dc/elements/1.1/" xmlns:rdf="http://www.w3.org/1999/02/22-rdf-syntax-ns#">
   <cc:Work>
    <dc:type rdf:resource="http://purl.org/dc/dcmitype/StillImage"/>
    <dc:date>2021-11-10T21:25:48.975153</dc:date>
    <dc:format>image/svg+xml</dc:format>
    <dc:creator>
     <cc:Agent>
      <dc:title>Matplotlib v3.4.3, https://matplotlib.org/</dc:title>
     </cc:Agent>
    </dc:creator>
   </cc:Work>
  </rdf:RDF>
 </metadata>
 <defs>
  <style type="text/css">*{stroke-linecap:butt;stroke-linejoin:round;}</style>
 </defs>
 <g id="figure_1">
  <g id="patch_1">
   <path d="M 0 331.674375 
L 556.234375 331.674375 
L 556.234375 0 
L 0 0 
z
" style="fill:none;"/>
  </g>
  <g id="axes_1">
   <g id="patch_2">
    <path d="M 56.50625 294.118125 
L 502.90625 294.118125 
L 502.90625 22.318125 
L 56.50625 22.318125 
z
" style="fill:#ffffff;"/>
   </g>
   <g id="matplotlib.axis_1">
    <g id="xtick_1">
     <g id="line2d_1">
      <path clip-path="url(#p4884136c7d)" d="M 76.797159 294.118125 
L 76.797159 22.318125 
" style="fill:none;stroke:#b0b0b0;stroke-linecap:square;stroke-width:0.8;"/>
     </g>
     <g id="line2d_2">
      <defs>
       <path d="M 0 0 
L 0 3.5 
" id="m51147ece58" style="stroke:#000000;stroke-width:0.8;"/>
      </defs>
      <g>
       <use style="stroke:#000000;stroke-width:0.8;" x="76.797159" xlink:href="#m51147ece58" y="294.118125"/>
      </g>
     </g>
     <g id="text_1">
      <!-- 2021-07-01 -->
      <g transform="translate(47.739347 308.716563)scale(0.1 -0.1)">
       <defs>
        <path d="M 1228 531 
L 3431 531 
L 3431 0 
L 469 0 
L 469 531 
Q 828 903 1448 1529 
Q 2069 2156 2228 2338 
Q 2531 2678 2651 2914 
Q 2772 3150 2772 3378 
Q 2772 3750 2511 3984 
Q 2250 4219 1831 4219 
Q 1534 4219 1204 4116 
Q 875 4013 500 3803 
L 500 4441 
Q 881 4594 1212 4672 
Q 1544 4750 1819 4750 
Q 2544 4750 2975 4387 
Q 3406 4025 3406 3419 
Q 3406 3131 3298 2873 
Q 3191 2616 2906 2266 
Q 2828 2175 2409 1742 
Q 1991 1309 1228 531 
z
" id="DejaVuSans-32" transform="scale(0.015625)"/>
        <path d="M 2034 4250 
Q 1547 4250 1301 3770 
Q 1056 3291 1056 2328 
Q 1056 1369 1301 889 
Q 1547 409 2034 409 
Q 2525 409 2770 889 
Q 3016 1369 3016 2328 
Q 3016 3291 2770 3770 
Q 2525 4250 2034 4250 
z
M 2034 4750 
Q 2819 4750 3233 4129 
Q 3647 3509 3647 2328 
Q 3647 1150 3233 529 
Q 2819 -91 2034 -91 
Q 1250 -91 836 529 
Q 422 1150 422 2328 
Q 422 3509 836 4129 
Q 1250 4750 2034 4750 
z
" id="DejaVuSans-30" transform="scale(0.015625)"/>
        <path d="M 794 531 
L 1825 531 
L 1825 4091 
L 703 3866 
L 703 4441 
L 1819 4666 
L 2450 4666 
L 2450 531 
L 3481 531 
L 3481 0 
L 794 0 
L 794 531 
z
" id="DejaVuSans-31" transform="scale(0.015625)"/>
        <path d="M 313 2009 
L 1997 2009 
L 1997 1497 
L 313 1497 
L 313 2009 
z
" id="DejaVuSans-2d" transform="scale(0.015625)"/>
        <path d="M 525 4666 
L 3525 4666 
L 3525 4397 
L 1831 0 
L 1172 0 
L 2766 4134 
L 525 4134 
L 525 4666 
z
" id="DejaVuSans-37" transform="scale(0.015625)"/>
       </defs>
       <use xlink:href="#DejaVuSans-32"/>
       <use x="63.623047" xlink:href="#DejaVuSans-30"/>
       <use x="127.246094" xlink:href="#DejaVuSans-32"/>
       <use x="190.869141" xlink:href="#DejaVuSans-31"/>
       <use x="254.492188" xlink:href="#DejaVuSans-2d"/>
       <use x="290.576172" xlink:href="#DejaVuSans-30"/>
       <use x="354.199219" xlink:href="#DejaVuSans-37"/>
       <use x="417.822266" xlink:href="#DejaVuSans-2d"/>
       <use x="453.90625" xlink:href="#DejaVuSans-30"/>
       <use x="517.529297" xlink:href="#DejaVuSans-31"/>
      </g>
     </g>
    </g>
    <g id="xtick_2">
     <g id="line2d_3">
      <path clip-path="url(#p4884136c7d)" d="M 139.604579 294.118125 
L 139.604579 22.318125 
" style="fill:none;stroke:#b0b0b0;stroke-linecap:square;stroke-width:0.8;"/>
     </g>
     <g id="line2d_4">
      <g>
       <use style="stroke:#000000;stroke-width:0.8;" x="139.604579" xlink:href="#m51147ece58" y="294.118125"/>
      </g>
     </g>
     <g id="text_2">
      <!-- 2021-07-15 -->
      <g transform="translate(110.546767 308.716563)scale(0.1 -0.1)">
       <defs>
        <path d="M 691 4666 
L 3169 4666 
L 3169 4134 
L 1269 4134 
L 1269 2991 
Q 1406 3038 1543 3061 
Q 1681 3084 1819 3084 
Q 2600 3084 3056 2656 
Q 3513 2228 3513 1497 
Q 3513 744 3044 326 
Q 2575 -91 1722 -91 
Q 1428 -91 1123 -41 
Q 819 9 494 109 
L 494 744 
Q 775 591 1075 516 
Q 1375 441 1709 441 
Q 2250 441 2565 725 
Q 2881 1009 2881 1497 
Q 2881 1984 2565 2268 
Q 2250 2553 1709 2553 
Q 1456 2553 1204 2497 
Q 953 2441 691 2322 
L 691 4666 
z
" id="DejaVuSans-35" transform="scale(0.015625)"/>
       </defs>
       <use xlink:href="#DejaVuSans-32"/>
       <use x="63.623047" xlink:href="#DejaVuSans-30"/>
       <use x="127.246094" xlink:href="#DejaVuSans-32"/>
       <use x="190.869141" xlink:href="#DejaVuSans-31"/>
       <use x="254.492188" xlink:href="#DejaVuSans-2d"/>
       <use x="290.576172" xlink:href="#DejaVuSans-30"/>
       <use x="354.199219" xlink:href="#DejaVuSans-37"/>
       <use x="417.822266" xlink:href="#DejaVuSans-2d"/>
       <use x="453.90625" xlink:href="#DejaVuSans-31"/>
       <use x="517.529297" xlink:href="#DejaVuSans-35"/>
      </g>
     </g>
    </g>
    <g id="xtick_3">
     <g id="line2d_5">
      <path clip-path="url(#p4884136c7d)" d="M 215.870732 294.118125 
L 215.870732 22.318125 
" style="fill:none;stroke:#b0b0b0;stroke-linecap:square;stroke-width:0.8;"/>
     </g>
     <g id="line2d_6">
      <g>
       <use style="stroke:#000000;stroke-width:0.8;" x="215.870732" xlink:href="#m51147ece58" y="294.118125"/>
      </g>
     </g>
     <g id="text_3">
      <!-- 2021-08-01 -->
      <g transform="translate(186.81292 308.716563)scale(0.1 -0.1)">
       <defs>
        <path d="M 2034 2216 
Q 1584 2216 1326 1975 
Q 1069 1734 1069 1313 
Q 1069 891 1326 650 
Q 1584 409 2034 409 
Q 2484 409 2743 651 
Q 3003 894 3003 1313 
Q 3003 1734 2745 1975 
Q 2488 2216 2034 2216 
z
M 1403 2484 
Q 997 2584 770 2862 
Q 544 3141 544 3541 
Q 544 4100 942 4425 
Q 1341 4750 2034 4750 
Q 2731 4750 3128 4425 
Q 3525 4100 3525 3541 
Q 3525 3141 3298 2862 
Q 3072 2584 2669 2484 
Q 3125 2378 3379 2068 
Q 3634 1759 3634 1313 
Q 3634 634 3220 271 
Q 2806 -91 2034 -91 
Q 1263 -91 848 271 
Q 434 634 434 1313 
Q 434 1759 690 2068 
Q 947 2378 1403 2484 
z
M 1172 3481 
Q 1172 3119 1398 2916 
Q 1625 2713 2034 2713 
Q 2441 2713 2670 2916 
Q 2900 3119 2900 3481 
Q 2900 3844 2670 4047 
Q 2441 4250 2034 4250 
Q 1625 4250 1398 4047 
Q 1172 3844 1172 3481 
z
" id="DejaVuSans-38" transform="scale(0.015625)"/>
       </defs>
       <use xlink:href="#DejaVuSans-32"/>
       <use x="63.623047" xlink:href="#DejaVuSans-30"/>
       <use x="127.246094" xlink:href="#DejaVuSans-32"/>
       <use x="190.869141" xlink:href="#DejaVuSans-31"/>
       <use x="254.492188" xlink:href="#DejaVuSans-2d"/>
       <use x="290.576172" xlink:href="#DejaVuSans-30"/>
       <use x="354.199219" xlink:href="#DejaVuSans-38"/>
       <use x="417.822266" xlink:href="#DejaVuSans-2d"/>
       <use x="453.90625" xlink:href="#DejaVuSans-30"/>
       <use x="517.529297" xlink:href="#DejaVuSans-31"/>
      </g>
     </g>
    </g>
    <g id="xtick_4">
     <g id="line2d_7">
      <path clip-path="url(#p4884136c7d)" d="M 278.678152 294.118125 
L 278.678152 22.318125 
" style="fill:none;stroke:#b0b0b0;stroke-linecap:square;stroke-width:0.8;"/>
     </g>
     <g id="line2d_8">
      <g>
       <use style="stroke:#000000;stroke-width:0.8;" x="278.678152" xlink:href="#m51147ece58" y="294.118125"/>
      </g>
     </g>
     <g id="text_4">
      <!-- 2021-08-15 -->
      <g transform="translate(249.62034 308.716563)scale(0.1 -0.1)">
       <use xlink:href="#DejaVuSans-32"/>
       <use x="63.623047" xlink:href="#DejaVuSans-30"/>
       <use x="127.246094" xlink:href="#DejaVuSans-32"/>
       <use x="190.869141" xlink:href="#DejaVuSans-31"/>
       <use x="254.492188" xlink:href="#DejaVuSans-2d"/>
       <use x="290.576172" xlink:href="#DejaVuSans-30"/>
       <use x="354.199219" xlink:href="#DejaVuSans-38"/>
       <use x="417.822266" xlink:href="#DejaVuSans-2d"/>
       <use x="453.90625" xlink:href="#DejaVuSans-31"/>
       <use x="517.529297" xlink:href="#DejaVuSans-35"/>
      </g>
     </g>
    </g>
    <g id="xtick_5">
     <g id="line2d_9">
      <path clip-path="url(#p4884136c7d)" d="M 354.944305 294.118125 
L 354.944305 22.318125 
" style="fill:none;stroke:#b0b0b0;stroke-linecap:square;stroke-width:0.8;"/>
     </g>
     <g id="line2d_10">
      <g>
       <use style="stroke:#000000;stroke-width:0.8;" x="354.944305" xlink:href="#m51147ece58" y="294.118125"/>
      </g>
     </g>
     <g id="text_5">
      <!-- 2021-09-01 -->
      <g transform="translate(325.886493 308.716563)scale(0.1 -0.1)">
       <defs>
        <path d="M 703 97 
L 703 672 
Q 941 559 1184 500 
Q 1428 441 1663 441 
Q 2288 441 2617 861 
Q 2947 1281 2994 2138 
Q 2813 1869 2534 1725 
Q 2256 1581 1919 1581 
Q 1219 1581 811 2004 
Q 403 2428 403 3163 
Q 403 3881 828 4315 
Q 1253 4750 1959 4750 
Q 2769 4750 3195 4129 
Q 3622 3509 3622 2328 
Q 3622 1225 3098 567 
Q 2575 -91 1691 -91 
Q 1453 -91 1209 -44 
Q 966 3 703 97 
z
M 1959 2075 
Q 2384 2075 2632 2365 
Q 2881 2656 2881 3163 
Q 2881 3666 2632 3958 
Q 2384 4250 1959 4250 
Q 1534 4250 1286 3958 
Q 1038 3666 1038 3163 
Q 1038 2656 1286 2365 
Q 1534 2075 1959 2075 
z
" id="DejaVuSans-39" transform="scale(0.015625)"/>
       </defs>
       <use xlink:href="#DejaVuSans-32"/>
       <use x="63.623047" xlink:href="#DejaVuSans-30"/>
       <use x="127.246094" xlink:href="#DejaVuSans-32"/>
       <use x="190.869141" xlink:href="#DejaVuSans-31"/>
       <use x="254.492188" xlink:href="#DejaVuSans-2d"/>
       <use x="290.576172" xlink:href="#DejaVuSans-30"/>
       <use x="354.199219" xlink:href="#DejaVuSans-39"/>
       <use x="417.822266" xlink:href="#DejaVuSans-2d"/>
       <use x="453.90625" xlink:href="#DejaVuSans-30"/>
       <use x="517.529297" xlink:href="#DejaVuSans-31"/>
      </g>
     </g>
    </g>
    <g id="xtick_6">
     <g id="line2d_11">
      <path clip-path="url(#p4884136c7d)" d="M 417.751725 294.118125 
L 417.751725 22.318125 
" style="fill:none;stroke:#b0b0b0;stroke-linecap:square;stroke-width:0.8;"/>
     </g>
     <g id="line2d_12">
      <g>
       <use style="stroke:#000000;stroke-width:0.8;" x="417.751725" xlink:href="#m51147ece58" y="294.118125"/>
      </g>
     </g>
     <g id="text_6">
      <!-- 2021-09-15 -->
      <g transform="translate(388.693913 308.716563)scale(0.1 -0.1)">
       <use xlink:href="#DejaVuSans-32"/>
       <use x="63.623047" xlink:href="#DejaVuSans-30"/>
       <use x="127.246094" xlink:href="#DejaVuSans-32"/>
       <use x="190.869141" xlink:href="#DejaVuSans-31"/>
       <use x="254.492188" xlink:href="#DejaVuSans-2d"/>
       <use x="290.576172" xlink:href="#DejaVuSans-30"/>
       <use x="354.199219" xlink:href="#DejaVuSans-39"/>
       <use x="417.822266" xlink:href="#DejaVuSans-2d"/>
       <use x="453.90625" xlink:href="#DejaVuSans-31"/>
       <use x="517.529297" xlink:href="#DejaVuSans-35"/>
      </g>
     </g>
    </g>
    <g id="xtick_7">
     <g id="line2d_13">
      <path clip-path="url(#p4884136c7d)" d="M 489.531634 294.118125 
L 489.531634 22.318125 
" style="fill:none;stroke:#b0b0b0;stroke-linecap:square;stroke-width:0.8;"/>
     </g>
     <g id="line2d_14">
      <g>
       <use style="stroke:#000000;stroke-width:0.8;" x="489.531634" xlink:href="#m51147ece58" y="294.118125"/>
      </g>
     </g>
     <g id="text_7">
      <!-- 2021-10-01 -->
      <g transform="translate(460.473822 308.716563)scale(0.1 -0.1)">
       <use xlink:href="#DejaVuSans-32"/>
       <use x="63.623047" xlink:href="#DejaVuSans-30"/>
       <use x="127.246094" xlink:href="#DejaVuSans-32"/>
       <use x="190.869141" xlink:href="#DejaVuSans-31"/>
       <use x="254.492188" xlink:href="#DejaVuSans-2d"/>
       <use x="290.576172" xlink:href="#DejaVuSans-31"/>
       <use x="354.199219" xlink:href="#DejaVuSans-30"/>
       <use x="417.822266" xlink:href="#DejaVuSans-2d"/>
       <use x="453.90625" xlink:href="#DejaVuSans-30"/>
       <use x="517.529297" xlink:href="#DejaVuSans-31"/>
      </g>
     </g>
    </g>
    <g id="text_8">
     <!-- Date -->
     <g transform="translate(267.755469 322.394687)scale(0.1 -0.1)">
      <defs>
       <path d="M 1259 4147 
L 1259 519 
L 2022 519 
Q 2988 519 3436 956 
Q 3884 1394 3884 2338 
Q 3884 3275 3436 3711 
Q 2988 4147 2022 4147 
L 1259 4147 
z
M 628 4666 
L 1925 4666 
Q 3281 4666 3915 4102 
Q 4550 3538 4550 2338 
Q 4550 1131 3912 565 
Q 3275 0 1925 0 
L 628 0 
L 628 4666 
z
" id="DejaVuSans-44" transform="scale(0.015625)"/>
       <path d="M 2194 1759 
Q 1497 1759 1228 1600 
Q 959 1441 959 1056 
Q 959 750 1161 570 
Q 1363 391 1709 391 
Q 2188 391 2477 730 
Q 2766 1069 2766 1631 
L 2766 1759 
L 2194 1759 
z
M 3341 1997 
L 3341 0 
L 2766 0 
L 2766 531 
Q 2569 213 2275 61 
Q 1981 -91 1556 -91 
Q 1019 -91 701 211 
Q 384 513 384 1019 
Q 384 1609 779 1909 
Q 1175 2209 1959 2209 
L 2766 2209 
L 2766 2266 
Q 2766 2663 2505 2880 
Q 2244 3097 1772 3097 
Q 1472 3097 1187 3025 
Q 903 2953 641 2809 
L 641 3341 
Q 956 3463 1253 3523 
Q 1550 3584 1831 3584 
Q 2591 3584 2966 3190 
Q 3341 2797 3341 1997 
z
" id="DejaVuSans-61" transform="scale(0.015625)"/>
       <path d="M 1172 4494 
L 1172 3500 
L 2356 3500 
L 2356 3053 
L 1172 3053 
L 1172 1153 
Q 1172 725 1289 603 
Q 1406 481 1766 481 
L 2356 481 
L 2356 0 
L 1766 0 
Q 1100 0 847 248 
Q 594 497 594 1153 
L 594 3053 
L 172 3053 
L 172 3500 
L 594 3500 
L 594 4494 
L 1172 4494 
z
" id="DejaVuSans-74" transform="scale(0.015625)"/>
       <path d="M 3597 1894 
L 3597 1613 
L 953 1613 
Q 991 1019 1311 708 
Q 1631 397 2203 397 
Q 2534 397 2845 478 
Q 3156 559 3463 722 
L 3463 178 
Q 3153 47 2828 -22 
Q 2503 -91 2169 -91 
Q 1331 -91 842 396 
Q 353 884 353 1716 
Q 353 2575 817 3079 
Q 1281 3584 2069 3584 
Q 2775 3584 3186 3129 
Q 3597 2675 3597 1894 
z
M 3022 2063 
Q 3016 2534 2758 2815 
Q 2500 3097 2075 3097 
Q 1594 3097 1305 2825 
Q 1016 2553 972 2059 
L 3022 2063 
z
" id="DejaVuSans-65" transform="scale(0.015625)"/>
      </defs>
      <use xlink:href="#DejaVuSans-44"/>
      <use x="77.001953" xlink:href="#DejaVuSans-61"/>
      <use x="138.28125" xlink:href="#DejaVuSans-74"/>
      <use x="177.490234" xlink:href="#DejaVuSans-65"/>
     </g>
    </g>
   </g>
   <g id="matplotlib.axis_2">
    <g id="ytick_1">
     <g id="line2d_15">
      <path clip-path="url(#p4884136c7d)" d="M 56.50625 281.72925 
L 502.90625 281.72925 
" style="fill:none;stroke:#b0b0b0;stroke-linecap:square;stroke-width:0.8;"/>
     </g>
     <g id="line2d_16">
      <defs>
       <path d="M 0 0 
L -3.5 0 
" id="m892b08e4b0" style="stroke:#000000;stroke-width:0.8;"/>
      </defs>
      <g>
       <use style="stroke:#000000;stroke-width:0.8;" x="56.50625" xlink:href="#m892b08e4b0" y="281.72925"/>
      </g>
     </g>
     <g id="text_9">
      <!-- 30 -->
      <g transform="translate(36.78125 285.528469)scale(0.1 -0.1)">
       <defs>
        <path d="M 2597 2516 
Q 3050 2419 3304 2112 
Q 3559 1806 3559 1356 
Q 3559 666 3084 287 
Q 2609 -91 1734 -91 
Q 1441 -91 1130 -33 
Q 819 25 488 141 
L 488 750 
Q 750 597 1062 519 
Q 1375 441 1716 441 
Q 2309 441 2620 675 
Q 2931 909 2931 1356 
Q 2931 1769 2642 2001 
Q 2353 2234 1838 2234 
L 1294 2234 
L 1294 2753 
L 1863 2753 
Q 2328 2753 2575 2939 
Q 2822 3125 2822 3475 
Q 2822 3834 2567 4026 
Q 2313 4219 1838 4219 
Q 1578 4219 1281 4162 
Q 984 4106 628 3988 
L 628 4550 
Q 988 4650 1302 4700 
Q 1616 4750 1894 4750 
Q 2613 4750 3031 4423 
Q 3450 4097 3450 3541 
Q 3450 3153 3228 2886 
Q 3006 2619 2597 2516 
z
" id="DejaVuSans-33" transform="scale(0.015625)"/>
       </defs>
       <use xlink:href="#DejaVuSans-33"/>
       <use x="63.623047" xlink:href="#DejaVuSans-30"/>
      </g>
     </g>
    </g>
    <g id="ytick_2">
     <g id="line2d_17">
      <path clip-path="url(#p4884136c7d)" d="M 56.50625 244.465819 
L 502.90625 244.465819 
" style="fill:none;stroke:#b0b0b0;stroke-linecap:square;stroke-width:0.8;"/>
     </g>
     <g id="line2d_18">
      <g>
       <use style="stroke:#000000;stroke-width:0.8;" x="56.50625" xlink:href="#m892b08e4b0" y="244.465819"/>
      </g>
     </g>
     <g id="text_10">
      <!-- 30.25 -->
      <g transform="translate(20.878125 248.265038)scale(0.1 -0.1)">
       <defs>
        <path d="M 684 794 
L 1344 794 
L 1344 0 
L 684 0 
L 684 794 
z
" id="DejaVuSans-2e" transform="scale(0.015625)"/>
       </defs>
       <use xlink:href="#DejaVuSans-33"/>
       <use x="63.623047" xlink:href="#DejaVuSans-30"/>
       <use x="127.246094" xlink:href="#DejaVuSans-2e"/>
       <use x="159.033203" xlink:href="#DejaVuSans-32"/>
       <use x="222.65625" xlink:href="#DejaVuSans-35"/>
      </g>
     </g>
    </g>
    <g id="ytick_3">
     <g id="line2d_19">
      <path clip-path="url(#p4884136c7d)" d="M 56.50625 207.202388 
L 502.90625 207.202388 
" style="fill:none;stroke:#b0b0b0;stroke-linecap:square;stroke-width:0.8;"/>
     </g>
     <g id="line2d_20">
      <g>
       <use style="stroke:#000000;stroke-width:0.8;" x="56.50625" xlink:href="#m892b08e4b0" y="207.202388"/>
      </g>
     </g>
     <g id="text_11">
      <!-- 30.5 -->
      <g transform="translate(27.240625 211.001607)scale(0.1 -0.1)">
       <use xlink:href="#DejaVuSans-33"/>
       <use x="63.623047" xlink:href="#DejaVuSans-30"/>
       <use x="127.246094" xlink:href="#DejaVuSans-2e"/>
       <use x="159.033203" xlink:href="#DejaVuSans-35"/>
      </g>
     </g>
    </g>
    <g id="ytick_4">
     <g id="line2d_21">
      <path clip-path="url(#p4884136c7d)" d="M 56.50625 169.938957 
L 502.90625 169.938957 
" style="fill:none;stroke:#b0b0b0;stroke-linecap:square;stroke-width:0.8;"/>
     </g>
     <g id="line2d_22">
      <g>
       <use style="stroke:#000000;stroke-width:0.8;" x="56.50625" xlink:href="#m892b08e4b0" y="169.938957"/>
      </g>
     </g>
     <g id="text_12">
      <!-- 30.75 -->
      <g transform="translate(20.878125 173.738176)scale(0.1 -0.1)">
       <use xlink:href="#DejaVuSans-33"/>
       <use x="63.623047" xlink:href="#DejaVuSans-30"/>
       <use x="127.246094" xlink:href="#DejaVuSans-2e"/>
       <use x="159.033203" xlink:href="#DejaVuSans-37"/>
       <use x="222.65625" xlink:href="#DejaVuSans-35"/>
      </g>
     </g>
    </g>
    <g id="ytick_5">
     <g id="line2d_23">
      <path clip-path="url(#p4884136c7d)" d="M 56.50625 132.675526 
L 502.90625 132.675526 
" style="fill:none;stroke:#b0b0b0;stroke-linecap:square;stroke-width:0.8;"/>
     </g>
     <g id="line2d_24">
      <g>
       <use style="stroke:#000000;stroke-width:0.8;" x="56.50625" xlink:href="#m892b08e4b0" y="132.675526"/>
      </g>
     </g>
     <g id="text_13">
      <!-- 31 -->
      <g transform="translate(36.78125 136.474745)scale(0.1 -0.1)">
       <use xlink:href="#DejaVuSans-33"/>
       <use x="63.623047" xlink:href="#DejaVuSans-31"/>
      </g>
     </g>
    </g>
    <g id="ytick_6">
     <g id="line2d_25">
      <path clip-path="url(#p4884136c7d)" d="M 56.50625 95.412095 
L 502.90625 95.412095 
" style="fill:none;stroke:#b0b0b0;stroke-linecap:square;stroke-width:0.8;"/>
     </g>
     <g id="line2d_26">
      <g>
       <use style="stroke:#000000;stroke-width:0.8;" x="56.50625" xlink:href="#m892b08e4b0" y="95.412095"/>
      </g>
     </g>
     <g id="text_14">
      <!-- 31.25 -->
      <g transform="translate(20.878125 99.211313)scale(0.1 -0.1)">
       <use xlink:href="#DejaVuSans-33"/>
       <use x="63.623047" xlink:href="#DejaVuSans-31"/>
       <use x="127.246094" xlink:href="#DejaVuSans-2e"/>
       <use x="159.033203" xlink:href="#DejaVuSans-32"/>
       <use x="222.65625" xlink:href="#DejaVuSans-35"/>
      </g>
     </g>
    </g>
    <g id="ytick_7">
     <g id="line2d_27">
      <path clip-path="url(#p4884136c7d)" d="M 56.50625 58.148663 
L 502.90625 58.148663 
" style="fill:none;stroke:#b0b0b0;stroke-linecap:square;stroke-width:0.8;"/>
     </g>
     <g id="line2d_28">
      <g>
       <use style="stroke:#000000;stroke-width:0.8;" x="56.50625" xlink:href="#m892b08e4b0" y="58.148663"/>
      </g>
     </g>
     <g id="text_15">
      <!-- 31.5 -->
      <g transform="translate(27.240625 61.947882)scale(0.1 -0.1)">
       <use xlink:href="#DejaVuSans-33"/>
       <use x="63.623047" xlink:href="#DejaVuSans-31"/>
       <use x="127.246094" xlink:href="#DejaVuSans-2e"/>
       <use x="159.033203" xlink:href="#DejaVuSans-35"/>
      </g>
     </g>
    </g>
    <g id="text_16">
     <!-- Millions of $ -->
     <g transform="translate(14.798437 188.100156)rotate(-90)scale(0.1 -0.1)">
      <defs>
       <path d="M 628 4666 
L 1569 4666 
L 2759 1491 
L 3956 4666 
L 4897 4666 
L 4897 0 
L 4281 0 
L 4281 4097 
L 3078 897 
L 2444 897 
L 1241 4097 
L 1241 0 
L 628 0 
L 628 4666 
z
" id="DejaVuSans-4d" transform="scale(0.015625)"/>
       <path d="M 603 3500 
L 1178 3500 
L 1178 0 
L 603 0 
L 603 3500 
z
M 603 4863 
L 1178 4863 
L 1178 4134 
L 603 4134 
L 603 4863 
z
" id="DejaVuSans-69" transform="scale(0.015625)"/>
       <path d="M 603 4863 
L 1178 4863 
L 1178 0 
L 603 0 
L 603 4863 
z
" id="DejaVuSans-6c" transform="scale(0.015625)"/>
       <path d="M 1959 3097 
Q 1497 3097 1228 2736 
Q 959 2375 959 1747 
Q 959 1119 1226 758 
Q 1494 397 1959 397 
Q 2419 397 2687 759 
Q 2956 1122 2956 1747 
Q 2956 2369 2687 2733 
Q 2419 3097 1959 3097 
z
M 1959 3584 
Q 2709 3584 3137 3096 
Q 3566 2609 3566 1747 
Q 3566 888 3137 398 
Q 2709 -91 1959 -91 
Q 1206 -91 779 398 
Q 353 888 353 1747 
Q 353 2609 779 3096 
Q 1206 3584 1959 3584 
z
" id="DejaVuSans-6f" transform="scale(0.015625)"/>
       <path d="M 3513 2113 
L 3513 0 
L 2938 0 
L 2938 2094 
Q 2938 2591 2744 2837 
Q 2550 3084 2163 3084 
Q 1697 3084 1428 2787 
Q 1159 2491 1159 1978 
L 1159 0 
L 581 0 
L 581 3500 
L 1159 3500 
L 1159 2956 
Q 1366 3272 1645 3428 
Q 1925 3584 2291 3584 
Q 2894 3584 3203 3211 
Q 3513 2838 3513 2113 
z
" id="DejaVuSans-6e" transform="scale(0.015625)"/>
       <path d="M 2834 3397 
L 2834 2853 
Q 2591 2978 2328 3040 
Q 2066 3103 1784 3103 
Q 1356 3103 1142 2972 
Q 928 2841 928 2578 
Q 928 2378 1081 2264 
Q 1234 2150 1697 2047 
L 1894 2003 
Q 2506 1872 2764 1633 
Q 3022 1394 3022 966 
Q 3022 478 2636 193 
Q 2250 -91 1575 -91 
Q 1294 -91 989 -36 
Q 684 19 347 128 
L 347 722 
Q 666 556 975 473 
Q 1284 391 1588 391 
Q 1994 391 2212 530 
Q 2431 669 2431 922 
Q 2431 1156 2273 1281 
Q 2116 1406 1581 1522 
L 1381 1569 
Q 847 1681 609 1914 
Q 372 2147 372 2553 
Q 372 3047 722 3315 
Q 1072 3584 1716 3584 
Q 2034 3584 2315 3537 
Q 2597 3491 2834 3397 
z
" id="DejaVuSans-73" transform="scale(0.015625)"/>
       <path id="DejaVuSans-20" transform="scale(0.015625)"/>
       <path d="M 2375 4863 
L 2375 4384 
L 1825 4384 
Q 1516 4384 1395 4259 
Q 1275 4134 1275 3809 
L 1275 3500 
L 2222 3500 
L 2222 3053 
L 1275 3053 
L 1275 0 
L 697 0 
L 697 3053 
L 147 3053 
L 147 3500 
L 697 3500 
L 697 3744 
Q 697 4328 969 4595 
Q 1241 4863 1831 4863 
L 2375 4863 
z
" id="DejaVuSans-66" transform="scale(0.015625)"/>
       <path d="M 2163 -941 
L 1850 -941 
L 1847 0 
Q 1519 6 1191 76 
Q 863 147 531 288 
L 531 850 
Q 850 650 1176 548 
Q 1503 447 1850 444 
L 1850 1869 
Q 1159 1981 845 2250 
Q 531 2519 531 2988 
Q 531 3497 872 3790 
Q 1213 4084 1850 4128 
L 1850 4863 
L 2163 4863 
L 2163 4138 
Q 2453 4125 2725 4076 
Q 2997 4028 3256 3944 
L 3256 3397 
Q 2997 3528 2723 3600 
Q 2450 3672 2163 3684 
L 2163 2350 
Q 2872 2241 3206 1959 
Q 3541 1678 3541 1191 
Q 3541 663 3186 358 
Q 2831 53 2163 6 
L 2163 -941 
z
M 1850 2406 
L 1850 3688 
Q 1488 3647 1297 3481 
Q 1106 3316 1106 3041 
Q 1106 2772 1282 2622 
Q 1459 2472 1850 2406 
z
M 2163 1806 
L 2163 453 
Q 2559 506 2761 678 
Q 2963 850 2963 1131 
Q 2963 1406 2770 1568 
Q 2578 1731 2163 1806 
z
" id="DejaVuSans-24" transform="scale(0.015625)"/>
      </defs>
      <use xlink:href="#DejaVuSans-4d"/>
      <use x="86.279297" xlink:href="#DejaVuSans-69"/>
      <use x="114.0625" xlink:href="#DejaVuSans-6c"/>
      <use x="141.845703" xlink:href="#DejaVuSans-6c"/>
      <use x="169.628906" xlink:href="#DejaVuSans-69"/>
      <use x="197.412109" xlink:href="#DejaVuSans-6f"/>
      <use x="258.59375" xlink:href="#DejaVuSans-6e"/>
      <use x="321.972656" xlink:href="#DejaVuSans-73"/>
      <use x="374.072266" xlink:href="#DejaVuSans-20"/>
      <use x="405.859375" xlink:href="#DejaVuSans-6f"/>
      <use x="467.041016" xlink:href="#DejaVuSans-66"/>
      <use x="502.246094" xlink:href="#DejaVuSans-20"/>
      <use x="534.033203" xlink:href="#DejaVuSans-24"/>
     </g>
    </g>
   </g>
   <g id="line2d_29">
    <path clip-path="url(#p4884136c7d)" d="M 76.797159 281.72925 
L 77.731793 281.688646 
L 77.91872 280.885851 
L 78.479501 280.836215 
L 80.722623 280.740908 
L 80.90955 280.320104 
L 82.404964 280.226695 
L 82.778818 280.164888 
L 84.46116 280.060604 
L 85.582721 279.900068 
L 86.143501 279.900068 
L 86.517355 279.764953 
L 89.134331 279.678404 
L 89.321258 279.517542 
L 89.695111 279.517542 
L 89.882038 279.235719 
L 91.751307 279.167151 
L 92.312087 279.113129 
L 93.620575 279.010001 
L 93.994429 278.90489 
L 95.11599 278.852116 
L 95.302917 278.587839 
L 95.67677 278.587839 
L 96.050624 278.468328 
L 99.415307 278.373546 
L 100.536868 278.141904 
L 102.593064 278.141904 
L 102.779991 277.909786 
L 103.901552 277.84196 
L 104.836186 277.684664 
L 105.023113 277.438971 
L 105.957747 277.350465 
L 106.144674 276.545575 
L 106.331601 276.371824 
L 107.079308 276.297772 
L 107.453162 276.215464 
L 110.070138 276.144955 
L 110.630918 276.099326 
L 112.687113 276.033705 
L 113.247894 275.987114 
L 115.117162 275.939193 
L 115.677943 275.81991 
L 117.734138 275.716402 
L 117.921065 275.123558 
L 118.481846 275.078692 
L 119.41648 274.997524 
L 119.97726 274.954865 
L 122.781163 274.85648 
L 123.155017 274.783849 
L 125.585066 274.734193 
L 125.771993 274.558374 
L 127.641261 274.450184 
L 128.015115 274.327274 
L 128.388968 274.327274 
L 128.575895 273.805369 
L 128.949749 273.745484 
L 129.697456 273.679901 
L 129.884383 273.536294 
L 133.06214 273.44126 
L 133.435993 273.326865 
L 133.996774 273.326865 
L 134.183701 272.521975 
L 134.370628 272.210357 
L 135.118335 272.164882 
L 135.305262 272.078387 
L 135.492189 271.526047 
L 139.230726 271.41763 
L 139.791506 271.367428 
L 141.286921 271.266766 
L 141.660775 271.038653 
L 143.903897 270.935482 
L 144.27775 270.876079 
L 145.586238 270.807414 
L 145.773165 270.608133 
L 146.894726 270.551449 
L 157.36263 225.477603 
L 157.546441 225.477603 
L 157.549556 224.672713 
L 160.540386 211.794471 
L 161.101166 211.794471 
L 161.288093 211.624335 
L 162.222728 211.515313 
L 162.409654 211.37452 
L 162.596581 211.37452 
L 162.783508 211.212051 
L 163.157362 211.212051 
L 163.344289 210.97035 
L 164.091996 208.101443 
L 164.839703 208.057998 
L 165.213557 207.868635 
L 165.961264 207.773249 
L 166.335118 207.387074 
L 166.708972 207.283579 
L 167.082826 207.164407 
L 167.456679 207.164407 
L 167.830533 207.048448 
L 168.204387 207.048448 
L 168.765167 206.718217 
L 168.952094 206.718217 
L 169.325948 206.606687 
L 169.699801 206.606687 
L 170.073655 206.482307 
L 170.634436 206.37609 
L 171.195216 206.308863 
L 171.56907 205.734772 
L 171.942924 205.734772 
L 172.316777 205.501387 
L 172.690631 205.429116 
L 173.064485 205.369338 
L 174.559899 205.288088 
L 174.933753 205.028676 
L 175.68146 205.028676 
L 175.868387 204.888026 
L 176.055314 204.888026 
L 176.242241 204.453989 
L 177.176875 204.363211 
L 177.363802 203.558321 
L 177.737656 203.380514 
L 177.924583 203.380514 
L 178.111509 202.987351 
L 179.046144 202.987351 
L 179.419997 201.771975 
L 179.980778 201.716265 
L 180.354632 201.627036 
L 181.102339 201.574324 
L 181.663119 201.437756 
L 182.784681 201.3879 
L 182.971607 201.287947 
L 183.158534 200.684764 
L 183.906242 200.605328 
L 185.027803 200.318946 
L 185.962437 200.270441 
L 186.149364 200.122024 
L 186.336291 199.724007 
L 187.644779 199.672707 
L 187.831705 199.074437 
L 188.392486 199.015215 
L 188.579413 198.784703 
L 188.953266 198.784703 
L 189.140193 198.619638 
L 190.074828 198.565495 
L 190.448681 198.320369 
L 190.635608 198.320369 
L 190.822535 198.139149 
L 191.383315 198.139149 
L 191.570242 197.861016 
L 192.504877 197.756272 
L 192.691803 196.951381 
L 192.87873 196.762516 
L 193.626438 196.714535 
L 193.813364 196.552576 
L 194.187218 196.552576 
L 194.561072 196.436325 
L 195.121852 196.391262 
L 195.308779 196.143494 
L 195.495706 195.338604 
L 196.056487 194.929344 
L 196.43034 194.929344 
L 196.617267 194.666303 
L 197.738828 194.610646 
L 198.299609 194.467939 
L 199.42117 194.41466 
L 199.608097 194.09068 
L 199.98195 194.09068 
L 200.355804 193.847072 
L 200.729658 193.764598 
L 201.103511 193.716577 
L 201.290438 193.39043 
L 202.038146 193.323227 
L 202.598926 193.211286 
L 203.907414 193.115528 
L 204.281268 191.710734 
L 204.655121 191.710734 
L 205.028975 191.469847 
L 205.963609 191.397783 
L 206.337463 191.321103 
L 206.898244 191.228126 
L 207.08517 190.844969 
L 207.272097 190.723108 
L 207.459024 190.313987 
L 208.954439 190.221376 
L 209.328293 190.079096 
L 209.515219 189.72139 
L 209.889073 189.72139 
L 210.262927 188.226787 
L 210.449854 187.875356 
L 211.384488 187.875356 
L 211.571415 187.721746 
L 212.132195 187.621603 
L 213.06683 187.216984 
L 213.253756 186.849571 
L 213.440683 186.849571 
L 213.62761 186.717218 
L 214.188391 185.315776 
L 215.496879 185.274573 
L 215.683805 184.999831 
L 215.867617 184.999831 
L 215.870732 184.865445 
L 216.431513 184.647287 
L 216.61844 184.439632 
L 216.805366 184.003973 
L 217.740001 183.724982 
L 217.926928 183.583846 
L 218.300781 183.583846 
L 218.674635 183.45379 
L 219.235415 183.181451 
L 220.917757 176.026525 
L 221.665464 175.982256 
L 222.039318 175.705655 
L 222.973952 175.631437 
L 223.160879 175.423063 
L 224.656294 175.38037 
L 225.030148 175.195067 
L 225.777855 175.145587 
L 227.83405 166.662003 
L 228.207904 166.574288 
L 228.394831 166.574288 
L 228.581758 166.402851 
L 228.768685 166.402851 
L 228.955611 166.183556 
L 230.264099 166.076314 
L 230.451026 166.026609 
L 230.637953 165.74055 
L 231.011807 165.74055 
L 231.198734 165.570891 
L 231.38566 165.570891 
L 231.946441 165.214714 
L 232.133368 165.214714 
L 232.320295 164.594226 
L 232.694148 164.594226 
L 232.881075 164.326041 
L 233.068002 164.326041 
L 233.441856 164.107671 
L 233.628783 164.107671 
L 234.002636 163.995884 
L 234.37649 163.930668 
L 234.93727 163.930668 
L 235.078868 165.302805 
L 235.124197 163.641168 
L 236.619612 163.597078 
L 237.367319 163.060148 
L 238.301954 162.974611 
L 238.675807 162.858027 
L 239.049661 162.77786 
L 239.984295 162.674099 
L 240.171222 162.373309 
L 240.732003 162.373309 
L 241.105856 162.158875 
L 241.666637 162.158875 
L 242.414344 161.761132 
L 242.788198 161.691918 
L 243.348979 161.646463 
L 243.722832 161.646463 
L 243.909759 161.16601 
L 244.096686 161.16601 
L 245.03132 160.608356 
L 245.592101 158.193686 
L 245.779028 158.083535 
L 245.965954 157.806085 
L 246.024836 158.107215 
L 246.152881 157.756992 
L 246.526735 157.756992 
L 246.900589 157.112063 
L 247.648296 157.112063 
L 247.835223 156.906358 
L 248.209077 156.848882 
L 248.58293 156.543311 
L 248.769857 156.492006 
L 248.956784 156.212837 
L 249.330638 156.212837 
L 249.517564 156.022212 
L 250.078345 155.977723 
L 250.452199 154.772021 
L 251.760687 154.672888 
L 252.13454 154.459263 
L 252.695321 154.459263 
L 252.882248 154.190969 
L 253.443028 154.133557 
L 253.629955 153.797027 
L 254.564589 153.733603 
L 254.751516 153.301968 
L 255.499223 153.225369 
L 255.873077 152.890614 
L 256.246931 152.776588 
L 257.181565 152.673571 
L 257.368492 152.560761 
L 257.555419 151.757203 
L 257.929272 151.362784 
L 258.490053 151.321344 
L 258.67698 151.136648 
L 259.424687 151.083353 
L 259.798541 150.956554 
L 260.546248 150.861489 
L 261.293956 150.583153 
L 261.854736 150.583153 
L 262.041663 150.388193 
L 262.602444 150.323028 
L 262.976297 150.262582 
L 263.350151 150.262582 
L 263.910932 149.861845 
L 264.658639 149.755922 
L 265.219419 149.60432 
L 265.7802 149.541852 
L 265.967127 149.299196 
L 266.340981 149.299196 
L 266.714834 149.0871 
L 267.088688 149.0871 
L 267.275615 148.877611 
L 267.836395 148.801915 
L 268.023322 148.733193 
L 268.397176 147.127537 
L 268.77103 147.127537 
L 268.957956 146.958007 
L 270.266444 146.876292 
L 271.201079 146.607677 
L 271.388005 146.353279 
L 271.574932 146.353279 
L 271.761859 145.874697 
L 273.444201 145.571522 
L 274.004981 145.479341 
L 274.565762 145.304763 
L 274.752689 145.095267 
L 274.939615 144.639158 
L 275.500396 144.537032 
L 275.87425 144.415382 
L 276.248103 144.314298 
L 276.621957 144.178852 
L 277.743518 139.401251 
L 279.799713 138.938575 
L 280.360494 138.837661 
L 280.547421 138.791571 
L 280.734348 138.485856 
L 281.108201 138.485856 
L 281.668982 136.071186 
L 282.229762 135.912985 
L 282.416689 135.561868 
L 283.725177 135.516963 
L 283.912104 135.188556 
L 284.472885 135.188556 
L 284.659811 134.979705 
L 285.033665 134.912375 
L 285.407519 134.853539 
L 285.594446 134.853539 
L 285.781372 134.516965 
L 286.342153 134.258656 
L 287.08986 131.388907 
L 287.463714 131.388907 
L 287.650641 131.195953 
L 288.585275 131.110591 
L 289.146056 130.980817 
L 290.08069 130.872839 
L 290.267617 130.564847 
L 290.64147 130.564847 
L 291.015324 130.44569 
L 291.389178 130.370173 
L 291.395668 130.388289 
L 292.323812 130.290767 
L 292.510739 130.010757 
L 292.884593 130.010757 
L 293.071519 129.833045 
L 293.445373 129.77724 
L 293.6323 129.612373 
L 294.006154 129.533694 
L 294.380007 129.474279 
L 294.566934 129.233458 
L 296.62313 129.180521 
L 297.370837 128.741113 
L 297.744691 128.659161 
L 299.053179 128.135679 
L 300.361666 128.02709 
L 300.73552 127.831779 
L 301.109374 127.774963 
L 301.483228 127.554429 
L 303.165569 127.457859 
L 303.539423 127.387976 
L 303.72635 127.387976 
L 304.100203 127.070599 
L 304.660984 127.027762 
L 305.408691 126.983226 
L 305.782545 126.65995 
L 305.969472 126.509826 
L 306.343325 126.509826 
L 306.717179 126.184215 
L 306.904106 126.184215 
L 307.27796 126.05664 
L 307.464887 126.05664 
L 307.651813 125.887883 
L 308.025667 125.887883 
L 308.773374 123.025273 
L 310.268789 122.964229 
L 310.642643 122.86052 
L 310.82957 122.654168 
L 311.577277 122.609794 
L 312.324985 122.21485 
L 313.259619 122.154264 
L 313.633472 122.071581 
L 314.568107 122.007584 
L 314.94196 121.903895 
L 315.876595 121.903895 
L 316.063521 121.496318 
L 317.185083 121.496318 
L 317.372009 121.357547 
L 317.745863 120.67146 
L 318.49357 120.450597 
L 319.802058 120.343476 
L 320.923619 120.003293 
L 321.297473 120.003293 
L 321.4844 119.76479 
L 322.232107 119.679489 
L 322.605961 119.679489 
L 322.792888 119.486329 
L 323.914449 119.38947 
L 324.288303 119.323558 
L 324.662156 119.323558 
L 325.03601 119.192084 
L 325.222937 119.192084 
L 325.409864 119.01852 
L 325.596791 118.688454 
L 326.531425 118.600249 
L 327.092205 118.549605 
L 327.839913 118.473394 
L 328.213766 118.274597 
L 328.400693 117.941116 
L 330.083035 117.854798 
L 331.57845 117.552294 
L 332.509968 117.500925 
L 332.513084 117.393675 
L 332.886938 117.171878 
L 333.634645 117.104495 
L 334.195425 116.863928 
L 336.064694 116.792211 
L 336.251621 116.600017 
L 336.438548 116.600017 
L 336.625474 116.323408 
L 338.120889 116.223771 
L 338.68167 115.498289 
L 339.055523 115.225454 
L 339.24245 115.091811 
L 339.429377 114.467483 
L 339.616304 114.302945 
L 340.364011 114.256986 
L 340.737865 113.68339 
L 341.672499 113.581648 
L 342.23328 113.541157 
L 343.354841 113.493457 
L 343.728695 113.412766 
L 344.102548 113.412766 
L 344.289475 113.155535 
L 346.158744 113.089488 
L 346.719524 112.970657 
L 346.906451 112.970657 
L 347.841085 109.278638 
L 348.775719 109.211711 
L 349.3365 109.157198 
L 349.710354 109.110487 
L 350.084207 108.985957 
L 350.454946 108.985957 
L 350.458061 108.857385 
L 351.018842 108.812734 
L 351.579622 108.746718 
L 351.766549 108.605949 
L 352.32733 108.494883 
L 352.88811 108.320069 
L 353.075037 108.320069 
L 353.448891 108.189504 
L 354.757379 108.189504 
L 354.944305 108.018254 
L 355.131232 108.018254 
L 355.318159 107.523161 
L 357.000501 107.412914 
L 357.374354 107.293361 
L 358.122062 107.233373 
L 358.495915 107.102851 
L 359.056696 107.000743 
L 359.243623 106.860595 
L 360.365184 106.777953 
L 360.739038 106.405232 
L 360.925964 106.405232 
L 361.299818 106.024721 
L 361.486745 106.024721 
L 361.673672 105.732305 
L 362.421379 105.663395 
L 362.795233 105.574626 
L 362.98216 105.574626 
L 363.729867 102.355065 
L 363.913678 102.355065 
L 363.916794 101.550175 
L 364.290648 99.940395 
L 364.477574 99.70075 
L 364.851428 99.70075 
L 365.038355 99.57445 
L 365.225282 99.049376 
L 367.468404 98.948579 
L 367.655331 98.62219 
L 368.963819 98.62219 
L 369.150746 98.308551 
L 369.711526 98.308551 
L 369.898453 98.139519 
L 370.64616 98.078464 
L 371.020014 97.973421 
L 372.702356 97.878669 
L 373.076209 97.811532 
L 373.823917 97.767546 
L 374.010844 97.424561 
L 374.384697 97.353752 
L 374.758551 97.246891 
L 375.132405 97.176497 
L 375.319332 97.176497 
L 375.506258 96.980421 
L 375.693185 96.980421 
L 375.880112 96.496655 
L 376.814746 96.389521 
L 378.497088 96.012662 
L 379.805576 95.963784 
L 380.366356 95.791412 
L 380.553283 95.498182 
L 380.927137 95.498182 
L 381.114064 95.299613 
L 382.235625 95.228617 
L 382.609479 95.075393 
L 383.357186 94.993081 
L 384.104893 94.413445 
L 384.478747 94.413445 
L 384.665674 94.214786 
L 384.710017 94.436598 
L 384.710017 208.061823 
L 385.413381 185.176981 
L 387.095723 140.540792 
L 389.338845 83.442945 
L 389.712699 83.442945 
L 389.899625 83.198572 
L 390.831144 83.157232 
L 390.83426 82.922364 
L 391.39504 82.922364 
L 391.768894 82.79841 
L 391.955821 82.700461 
L 392.142748 82.338336 
L 392.890455 82.270156 
L 393.077382 81.465266 
L 393.264309 81.185025 
L 395.694358 81.106851 
L 396.068211 81.041725 
L 397.376699 80.952091 
L 397.563626 80.662354 
L 398.685187 80.605518 
L 398.872114 79.84779 
L 399.993675 79.84779 
L 400.180602 79.338355 
L 400.367529 79.338355 
L 400.741383 78.512276 
L 401.302163 77.963292 
L 401.48909 77.918403 
L 401.676017 77.429434 
L 401.862944 77.429434 
L 402.236797 77.1826 
L 402.984505 77.089841 
L 403.358358 77.010538 
L 403.732212 77.010538 
L 404.292993 76.698363 
L 405.414554 76.657377 
L 405.975334 76.508699 
L 406.162261 76.508699 
L 406.349188 76.338313 
L 406.723042 76.338313 
L 406.909968 76.050203 
L 407.096895 76.050203 
L 408.966164 68.175591 
L 409.526944 68.123626 
L 410.087725 67.916747 
L 410.274652 67.916747 
L 410.461579 67.707904 
L 411.209286 67.638361 
L 411.396213 67.573685 
L 411.472593 76.265107 
L 411.770066 67.098771 
L 412.14392 66.924358 
L 413.262366 66.840595 
L 413.265481 66.422126 
L 413.452408 66.28189 
L 414.200115 66.222753 
L 414.760896 65.885402 
L 415.13475 65.797062 
L 415.508603 65.695404 
L 415.69553 64.890514 
L 415.882457 64.73708 
L 416.069384 64.73708 
L 416.256311 63.932189 
L 416.817091 63.753041 
L 417.938652 63.67621 
L 418.312506 63.633509 
L 418.68636 63.262693 
L 418.873287 63.060509 
L 420.181774 63.012647 
L 420.555628 62.884017 
L 422.231739 62.773605 
L 422.23797 62.731387 
L 422.611823 62.731387 
L 422.985677 62.619928 
L 423.920311 62.619928 
L 424.107238 62.167265 
L 424.481092 62.055927 
L 424.668019 62.055927 
L 424.854946 61.857832 
L 426.724214 61.80659 
L 427.098068 61.735423 
L 428.032702 61.735423 
L 428.593483 61.294039 
L 428.780409 61.294039 
L 429.154263 61.182556 
L 430.275824 61.182556 
L 430.462751 60.907678 
L 431.023532 59.359299 
L 432.332019 59.307451 
L 432.518946 58.843201 
L 433.079727 58.843201 
L 433.266654 58.631654 
L 433.640507 58.631654 
L 434.575142 54.785608 
L 436.257483 54.721026 
L 436.631337 54.583757 
L 437.192117 54.583757 
L 437.565971 54.192004 
L 437.752898 54.192004 
L 437.939825 54.009272 
L 438.500605 53.963569 
L 438.687532 53.707477 
L 440.556801 53.665093 
L 440.930654 53.446471 
L 441.304508 53.446471 
L 441.491435 53.326464 
L 441.607797 79.267069 
L 441.678362 74.7114 
L 442.426069 55.979407 
L 442.506915 57.898542 
L 442.612996 53.413506 
L 442.799923 51.08481 
L 443.173776 51.08481 
L 443.360703 50.898847 
L 444.295338 50.851241 
L 444.482264 50.562472 
L 444.66296 50.562472 
L 444.669191 50.287746 
L 445.043045 50.171678 
L 446.164606 50.07209 
L 446.351533 49.74154 
L 448.033874 49.656685 
L 448.407728 49.540255 
L 448.574301 49.601857 
L 448.594655 49.165104 
L 448.625706 55.97359 
L 448.968509 48.610598 
L 450.09007 48.365895 
L 450.276997 48.365895 
L 450.65085 48.024538 
L 450.837777 47.787582 
L 452.707046 47.688837 
L 453.267826 47.648037 
L 454.763241 47.648037 
L 455.137095 47.467633 
L 455.324021 47.467633 
L 455.510948 47.218251 
L 455.697875 47.218251 
L 455.884802 46.690465 
L 456.258656 46.690465 
L 456.445583 46.405253 
L 456.819436 46.405253 
L 457.940997 41.612197 
L 458.314851 41.480704 
L 459.062558 41.320719 
L 459.249485 40.515829 
L 459.810266 40.1298 
L 459.997193 39.84845 
L 460.371046 39.846507 
L 460.557973 39.041617 
L 461.305681 39.041617 
L 461.492607 38.515003 
L 462.801095 38.473176 
L 463.361876 38.348384 
L 463.548803 38.27958 
L 463.73573 37.750563 
L 465.044217 37.437959 
L 467.100413 37.34752 
L 467.28734 37.139068 
L 469.156608 37.091243 
L 469.530462 36.987833 
L 470.278169 36.987833 
L 471.025876 36.478398 
L 473.455925 36.378732 
L 474.764413 35.998486 
L 476.820609 35.939678 
L 477.194462 35.88042 
L 477.755243 35.88042 
L 477.94217 35.277282 
L 478.689877 35.222429 
L 479.063731 35.139885 
L 480.932999 35.040393 
L 481.306853 34.915197 
L 482.05456 34.868524 
L 482.241487 34.714434 
L 482.615341 34.67267 
L 482.615341 34.67267 
" style="fill:none;stroke:#0000ff;stroke-linecap:square;stroke-width:1.5;"/>
   </g>
   <g id="line2d_30">
    <path clip-path="url(#p4884136c7d)" d="M 76.797159 281.72925 
L 77.544866 281.72925 
L 77.731793 281.582195 
L 78.479501 281.582195 
L 78.666428 281.421396 
L 79.414135 281.421396 
L 79.601062 281.260591 
L 80.348769 281.260591 
L 80.535696 281.099781 
L 81.283403 281.099781 
L 81.47033 280.933806 
L 82.218038 280.933806 
L 82.404964 280.772983 
L 83.152672 280.772983 
L 83.339599 280.612155 
L 84.087306 280.612155 
L 84.274233 280.451321 
L 85.02194 280.451321 
L 85.208867 280.290481 
L 85.956575 280.290481 
L 86.143501 280.125766 
L 86.891209 280.125766 
L 87.078136 279.964914 
L 87.825843 279.964914 
L 88.01277 279.804057 
L 88.760477 279.804057 
L 88.947404 279.643194 
L 89.695111 279.643194 
L 89.882038 279.482325 
L 91.003599 279.482325 
L 91.190526 279.284889 
L 92.12516 279.284889 
L 92.312087 279.091831 
L 93.246722 279.091831 
L 93.433648 278.898765 
L 94.368283 278.898765 
L 94.555209 278.70569 
L 95.67677 278.70569 
L 95.863697 278.512071 
L 96.798332 278.512071 
L 96.985258 278.318979 
L 97.919893 278.318979 
L 98.106819 278.12588 
L 99.228381 278.12588 
L 99.415307 277.928613 
L 100.349942 277.928613 
L 100.536868 277.735496 
L 101.471503 277.735496 
L 101.65843 277.542371 
L 102.593064 277.542371 
L 102.779991 277.349238 
L 103.901552 277.349238 
L 104.088479 277.158307 
L 105.023113 277.158307 
L 105.21004 276.965157 
L 106.144674 276.965157 
L 106.331601 276.771999 
L 107.266235 276.771999 
L 107.453162 276.578833 
L 108.200869 276.578833 
L 108.387796 276.426968 
L 109.135503 276.426968 
L 109.32243 276.265984 
L 110.070138 276.265984 
L 110.257064 276.104993 
L 111.004772 276.104993 
L 111.191699 275.943997 
L 111.939406 275.943997 
L 112.126333 275.782995 
L 112.87404 275.782995 
L 113.060967 275.621288 
L 113.808675 275.621288 
L 113.995601 275.460275 
L 114.743309 275.460275 
L 114.930236 275.299256 
L 115.677943 275.299256 
L 115.86487 275.138231 
L 116.612577 275.138231 
L 116.799504 274.9772 
L 117.734138 274.9772 
L 117.921065 274.815736 
L 118.668773 274.815736 
L 118.855699 274.654693 
L 119.603407 274.654693 
L 119.790334 274.493645 
L 120.538041 274.493645 
L 120.724968 274.332591 
L 121.472675 274.332591 
L 121.659602 274.171085 
L 122.407309 274.171085 
L 122.594236 274.010019 
L 123.341944 274.010019 
L 123.52887 273.848947 
L 124.276578 273.848947 
L 124.463505 273.68787 
L 125.211212 273.68787 
L 125.398139 273.526787 
L 126.145846 273.526787 
L 126.332773 273.370808 
L 127.080481 273.370808 
L 127.267407 273.209713 
L 128.015115 273.209713 
L 128.202042 273.048613 
L 128.949749 273.048613 
L 129.136676 272.887507 
L 129.884383 272.887507 
L 130.07131 272.726395 
L 130.819017 272.726395 
L 131.005944 272.568135 
L 131.753652 272.568135 
L 131.940579 272.407011 
L 132.688286 272.407011 
L 132.875213 272.245882 
L 133.62292 272.245882 
L 133.809847 272.084747 
L 134.557554 272.084747 
L 134.744481 271.923607 
L 135.492189 271.923607 
L 135.679115 271.762404 
L 136.426823 271.762404 
L 136.61375 271.601251 
L 137.361457 271.601251 
L 137.548384 271.440093 
L 138.296091 271.440093 
L 138.483018 271.278929 
L 139.230726 271.278929 
L 139.417652 271.11776 
L 139.978433 271.11776 
L 140.352287 270.988819 
L 140.72614 270.988819 
L 141.099994 270.859875 
L 141.473848 270.859875 
L 141.847701 270.730927 
L 142.221555 270.730927 
L 142.595409 270.601976 
L 142.969262 270.601976 
L 143.343116 270.47302 
L 143.71697 270.47302 
L 144.090824 270.344061 
L 144.464677 270.344061 
L 144.838531 270.215099 
L 145.212385 270.215099 
L 145.586238 270.086132 
L 145.960092 270.086132 
L 146.333946 269.957162 
L 146.707799 269.957162 
L 147.081653 269.828188 
L 147.455507 269.828188 
L 147.82936 269.699211 
L 148.203214 269.699211 
L 148.577068 269.570229 
L 148.950921 269.570229 
L 149.324775 269.441245 
L 149.698629 269.441245 
L 150.072483 269.312256 
L 150.446336 269.312256 
L 150.82019 269.183263 
L 151.194044 269.183263 
L 151.567897 269.054267 
L 151.941751 269.054267 
L 152.315605 268.925268 
L 152.689458 268.925268 
L 153.063312 268.796264 
L 153.437166 268.796264 
L 153.811019 268.667257 
L 154.184873 268.667257 
L 154.558727 268.538246 
L 154.932581 268.538246 
L 155.306434 268.409231 
L 155.680288 268.409231 
L 156.054142 268.280213 
L 156.427995 268.280213 
L 156.801849 268.151191 
L 157.175703 268.151191 
L 157.549556 268.022165 
L 158.110337 268.022165 
L 158.484191 267.892598 
L 158.858044 267.892598 
L 159.231898 267.763565 
L 159.605752 267.763565 
L 159.979605 267.634528 
L 160.353459 267.634528 
L 160.727313 267.505487 
L 161.101166 267.505487 
L 161.47502 267.376443 
L 162.035801 267.376443 
L 162.409654 267.252032 
L 162.783508 267.252032 
L 163.157362 267.12298 
L 163.531215 267.12298 
L 163.905069 266.993925 
L 164.278923 266.993925 
L 164.652777 266.864866 
L 165.02663 266.864866 
L 165.400484 266.735803 
L 165.774338 266.735803 
L 166.148191 266.606736 
L 166.708972 266.606736 
L 167.082826 266.470918 
L 167.456679 266.470918 
L 167.830533 266.341843 
L 168.204387 266.341843 
L 168.57824 266.212766 
L 168.952094 266.212766 
L 169.325948 266.083684 
L 169.699801 266.083684 
L 170.073655 265.954599 
L 170.447509 265.954599 
L 170.821362 265.82551 
L 171.195216 265.82551 
L 171.56907 265.69596 
L 171.942924 265.69596 
L 172.316777 265.566864 
L 172.690631 265.566864 
L 173.064485 265.437764 
L 173.438338 265.437764 
L 173.812192 265.30866 
L 174.186046 265.30866 
L 174.559899 265.179552 
L 174.933753 265.179552 
L 175.307607 265.050441 
L 175.68146 265.050441 
L 176.055314 264.919977 
L 176.429168 264.919977 
L 176.803021 264.790858 
L 177.176875 264.790858 
L 177.550729 264.661736 
L 177.924583 264.661736 
L 178.298436 264.53261 
L 178.67229 264.53261 
L 179.046144 264.40348 
L 179.419997 264.40348 
L 179.793851 264.274346 
L 180.354632 264.274346 
L 180.728485 264.143739 
L 181.102339 264.143739 
L 181.476193 264.014598 
L 181.850046 264.014598 
L 182.2239 263.885453 
L 182.597754 263.885453 
L 182.971607 263.756304 
L 183.345461 263.756304 
L 183.719315 263.627152 
L 184.093168 263.627152 
L 184.467022 263.497996 
L 184.840876 263.497996 
L 185.21473 263.368837 
L 185.588583 263.368837 
L 185.962437 263.239673 
L 186.336291 263.239673 
L 186.710144 263.110506 
L 187.083998 263.110506 
L 187.457852 262.981335 
L 187.831705 262.981335 
L 188.205559 262.852161 
L 188.579413 262.852161 
L 188.953266 262.722983 
L 189.514047 262.722983 
L 189.700974 262.561505 
L 190.448681 262.561505 
L 190.635608 262.400022 
L 191.383315 262.400022 
L 191.570242 262.238533 
L 192.31795 262.238533 
L 192.504877 262.077038 
L 193.252584 262.077038 
L 193.439511 261.912632 
L 194.187218 261.912632 
L 194.374145 261.751126 
L 195.121852 261.751126 
L 195.308779 261.589613 
L 196.056487 261.589613 
L 196.243413 261.428095 
L 196.991121 261.428095 
L 197.178048 261.266571 
L 197.925755 261.266571 
L 198.112682 261.105986 
L 198.860389 261.105986 
L 199.047316 260.944451 
L 199.795024 260.944451 
L 199.98195 260.78291 
L 200.729658 260.78291 
L 200.916585 260.621363 
L 201.664292 260.621363 
L 201.851219 260.45981 
L 202.598926 260.45981 
L 202.785853 260.297345 
L 203.53356 260.297345 
L 203.720487 260.13578 
L 204.468195 260.13578 
L 204.655121 259.97421 
L 205.402829 259.97421 
L 205.589756 259.812634 
L 206.337463 259.812634 
L 206.52439 259.651052 
L 207.272097 259.651052 
L 207.459024 259.488446 
L 208.206732 259.488446 
L 208.393658 259.326852 
L 209.141366 259.326852 
L 209.328293 259.165253 
L 210.076 259.165253 
L 210.262927 259.003648 
L 211.010634 259.003648 
L 211.197561 258.842036 
L 211.945268 258.842036 
L 212.132195 258.68042 
L 212.879903 258.68042 
L 213.06683 258.518797 
L 213.814537 258.518797 
L 214.001464 258.357168 
L 214.749171 258.357168 
L 214.936098 258.195534 
L 215.870732 258.195534 
L 216.057659 258.034827 
L 216.805366 258.034827 
L 216.992293 257.873181 
L 217.740001 257.873181 
L 217.926928 257.711529 
L 218.674635 257.711529 
L 218.861562 257.549872 
L 219.609269 257.549872 
L 219.796196 257.388208 
L 220.543903 257.388208 
L 220.73083 257.224534 
L 221.478538 257.224534 
L 221.665464 257.062858 
L 222.413172 257.062858 
L 222.600099 256.901178 
L 223.347806 256.901178 
L 223.534733 256.739491 
L 224.28244 256.739491 
L 224.469367 256.577798 
L 225.217075 256.577798 
L 225.404001 256.416606 
L 226.151709 256.416606 
L 226.338636 256.254902 
L 227.086343 256.254902 
L 227.27327 256.093192 
L 228.020977 256.093192 
L 228.207904 255.931476 
L 228.955611 255.931476 
L 229.142538 255.769755 
L 229.890246 255.769755 
L 230.077172 255.608027 
L 230.82488 255.608027 
L 231.011807 255.446294 
L 231.759514 255.446294 
L 231.946441 255.284555 
L 232.694148 255.284555 
L 232.881075 255.12281 
L 233.628783 255.12281 
L 233.815709 254.953395 
L 234.563417 254.953395 
L 234.750344 254.791639 
L 235.684978 254.791639 
L 235.871905 254.622031 
L 236.619612 254.622031 
L 236.806539 254.460262 
L 237.554246 254.460262 
L 237.741173 254.298487 
L 238.675807 254.298487 
L 238.862734 254.101556 
L 239.797368 254.101556 
L 239.984295 253.907411 
L 240.91893 253.907411 
L 241.105856 253.713258 
L 242.040491 253.713258 
L 242.227417 253.519097 
L 243.348979 253.519097 
L 243.535905 253.322027 
L 244.47054 253.322027 
L 244.657466 253.127849 
L 245.592101 253.127849 
L 245.779028 252.933662 
L 246.713662 252.933662 
L 246.900589 252.749662 
L 247.835223 252.749662 
L 248.02215 252.557844 
L 248.769857 252.557844 
L 248.956784 252.396001 
L 249.704491 252.396001 
L 249.891418 252.234153 
L 250.639126 252.234153 
L 250.826052 252.072298 
L 251.760687 252.072298 
L 251.947613 251.873767 
L 252.882248 251.873767 
L 253.069175 251.679526 
L 254.003809 251.679526 
L 254.190736 251.485277 
L 255.12537 251.485277 
L 255.312297 251.29102 
L 256.246931 251.29102 
L 256.433858 251.096813 
L 257.368492 251.096813 
L 257.555419 250.902539 
L 258.490053 250.902539 
L 258.67698 250.708256 
L 259.611614 250.708256 
L 259.798541 250.513965 
L 260.733175 250.513965 
L 260.920102 250.316033 
L 261.854736 250.316033 
L 262.041663 250.121725 
L 262.976297 250.121725 
L 263.163224 249.927408 
L 264.097858 249.927408 
L 264.284785 249.733084 
L 265.219419 249.733084 
L 265.406346 249.542508 
L 266.340981 249.542508 
L 266.527907 249.348167 
L 267.462542 249.348167 
L 267.649468 249.153817 
L 268.584103 249.153817 
L 268.77103 248.959459 
L 269.705664 248.959459 
L 269.892591 248.753023 
L 270.827225 248.753023 
L 271.014152 248.558647 
L 271.948786 248.558647 
L 272.135713 248.364263 
L 273.070347 248.364263 
L 273.257274 248.169871 
L 274.191908 248.169871 
L 274.378835 247.977886 
L 275.313469 247.977886 
L 275.500396 247.783477 
L 276.43503 247.783477 
L 276.621957 247.58906 
L 277.556591 247.58906 
L 277.743518 247.394634 
L 278.678152 247.394634 
L 278.865079 247.191656 
L 279.799713 247.191656 
L 279.98664 246.997213 
L 280.921274 246.997213 
L 281.108201 246.802762 
L 282.042836 246.802762 
L 282.229762 246.608302 
L 283.351323 246.608302 
L 283.53825 246.418272 
L 284.472885 246.418272 
L 284.659811 246.223796 
L 285.594446 246.223796 
L 285.781372 246.029311 
L 286.716007 246.029311 
L 286.902934 245.834818 
L 287.837568 245.834818 
L 288.024495 245.642956 
L 288.959129 245.642956 
L 289.146056 245.448447 
L 290.08069 245.448447 
L 290.267617 245.253928 
L 291.202251 245.253928 
L 291.395668 245.059402 
L 292.510739 245.059402 
L 292.697666 244.866891 
L 293.6323 244.866891 
L 293.819227 244.672348 
L 294.753861 244.672348 
L 294.940788 244.477797 
L 295.875422 244.477797 
L 296.062349 244.283237 
L 297.18391 244.283237 
L 297.370837 244.084722 
L 298.305471 244.084722 
L 298.492398 243.890145 
L 299.427032 243.890145 
L 299.613959 243.69556 
L 300.548593 243.69556 
L 300.73552 243.500966 
L 301.857081 243.500966 
L 302.044008 243.271343 
L 303.165569 243.271343 
L 303.352496 243.044295 
L 304.474057 243.044295 
L 304.660984 242.817237 
L 305.782545 242.817237 
L 305.969472 242.592926 
L 307.091033 242.592926 
L 307.27796 242.365845 
L 308.399521 242.365845 
L 308.586448 242.138752 
L 309.708009 242.138752 
L 309.894936 241.911648 
L 311.203423 241.911648 
L 311.39035 241.683991 
L 312.511911 241.683991 
L 312.698838 241.456864 
L 313.820399 241.456864 
L 314.007326 241.229726 
L 315.128887 241.229726 
L 315.315814 241.00225 
L 316.437375 241.00225 
L 316.624302 240.775089 
L 317.745863 240.775089 
L 317.93279 240.547916 
L 319.241278 240.547916 
L 319.428205 240.334486 
L 320.362839 240.334486 
L 320.549766 240.139747 
L 321.4844 240.139747 
L 321.671327 239.945 
L 322.605961 239.945 
L 322.792888 239.750245 
L 323.914449 239.750245 
L 324.101376 239.555065 
L 325.03601 239.555065 
L 325.222937 239.360293 
L 326.157571 239.360293 
L 326.344498 239.165512 
L 327.279132 239.165512 
L 327.466059 238.970723 
L 328.400693 238.970723 
L 328.58762 238.780537 
L 329.522254 238.780537 
L 329.709181 238.585732 
L 330.643815 238.585732 
L 330.830742 238.390917 
L 331.765377 238.390917 
L 331.952303 238.196095 
L 333.073864 238.196095 
L 333.260791 237.996761 
L 334.195425 237.996761 
L 334.382352 237.801921 
L 335.316987 237.801921 
L 335.503913 237.607073 
L 336.438548 237.607073 
L 336.625474 237.412217 
L 337.747036 237.412217 
L 337.933962 237.216201 
L 338.868597 237.216201 
L 339.055523 237.021328 
L 339.990158 237.021328 
L 340.177085 236.826446 
L 341.111719 236.826446 
L 341.298646 236.631556 
L 342.420207 236.631556 
L 342.607134 236.436116 
L 343.541768 236.436116 
L 343.728695 236.241209 
L 344.663329 236.241209 
L 344.850256 236.046293 
L 345.971817 236.046293 
L 346.158744 235.852577 
L 347.093378 235.852577 
L 347.280305 235.657644 
L 348.214939 235.657644 
L 348.401866 235.462704 
L 349.3365 235.462704 
L 349.523427 235.267755 
L 350.644988 235.267755 
L 350.831915 235.06658 
L 351.766549 235.06658 
L 351.953476 234.871614 
L 352.88811 234.871614 
L 353.075037 234.676639 
L 354.009671 234.676639 
L 354.196598 234.481656 
L 355.318159 234.481656 
L 355.505086 234.23858 
L 356.626647 234.23858 
L 356.813574 234.011078 
L 357.935135 234.011078 
L 358.122062 233.783565 
L 359.243623 233.783565 
L 359.43055 233.555066 
L 360.552111 233.555066 
L 360.739038 233.32753 
L 361.860599 233.32753 
L 362.047525 233.099982 
L 363.169087 233.099982 
L 363.356013 232.872423 
L 364.664501 232.872423 
L 364.851428 232.64243 
L 365.972989 232.64243 
L 366.159916 232.414848 
L 367.281477 232.414848 
L 367.468404 232.187254 
L 368.589965 232.187254 
L 368.776892 231.959863 
L 369.898453 231.959863 
L 370.08538 231.732247 
L 371.206941 231.732247 
L 371.393868 231.504618 
L 372.515429 231.504618 
L 372.702356 231.276979 
L 373.823917 231.276979 
L 374.010844 231.049328 
L 375.132405 231.049328 
L 375.319332 230.821665 
L 376.440893 230.821665 
L 376.627819 230.593991 
L 377.749381 230.593991 
L 377.936307 230.369056 
L 379.057868 230.369056 
L 379.244795 230.141359 
L 380.366356 230.141359 
L 380.553283 229.913651 
L 381.674844 229.913651 
L 381.861771 229.722218 
L 382.796405 229.722218 
L 382.983332 229.527022 
L 383.917966 229.527022 
L 384.104893 229.331816 
L 385.039528 229.331816 
L 385.226454 229.144321 
L 386.161089 229.144321 
L 386.348015 228.94951 
L 387.28265 228.94951 
L 387.469576 228.75428 
L 388.404211 228.75428 
L 388.591138 228.559042 
L 389.525772 228.559042 
L 389.712699 228.363795 
L 390.83426 228.363795 
L 391.021187 228.17074 
L 391.955821 228.17074 
L 392.142748 227.975476 
L 393.077382 227.975476 
L 393.264309 227.780204 
L 394.198943 227.780204 
L 394.38587 227.584924 
L 395.320504 227.584924 
L 395.507431 227.397407 
L 396.442065 227.397407 
L 396.628992 227.20211 
L 397.563626 227.20211 
L 397.750553 227.006804 
L 398.685187 227.006804 
L 398.872114 226.81149 
L 399.993675 226.81149 
L 400.180602 226.613282 
L 401.115236 226.613282 
L 401.302163 226.417951 
L 402.236797 226.417951 
L 402.423724 226.222612 
L 403.358358 226.222612 
L 403.545285 226.027264 
L 404.479919 226.027264 
L 404.666846 225.824548 
L 405.601481 225.824548 
L 405.788407 225.629183 
L 406.723042 225.629183 
L 406.909968 225.43381 
L 407.844603 225.43381 
L 408.03153 225.238428 
L 408.966164 225.238428 
L 409.153091 225.049026 
L 410.087725 225.049026 
L 410.274652 224.853628 
L 411.209286 224.853628 
L 411.472593 224.658221 
L 412.330847 224.658221 
L 412.517774 224.476114 
L 413.639335 224.476114 
L 413.826262 224.27304 
L 414.760896 224.27304 
L 414.947823 224.077608 
L 415.882457 224.077608 
L 416.069384 223.882168 
L 417.004018 223.882168 
L 417.190945 223.686719 
L 418.125579 223.686719 
L 418.312506 223.488194 
L 419.24714 223.488194 
L 419.434067 223.292728 
L 420.368701 223.292728 
L 420.555628 223.097254 
L 421.490262 223.097254 
L 421.677189 222.901772 
L 422.79875 222.901772 
L 422.985677 222.705789 
L 423.920311 222.705789 
L 424.107238 222.510289 
L 425.041872 222.510289 
L 425.228799 222.314781 
L 426.163434 222.314781 
L 426.35036 222.119265 
L 427.471921 222.119265 
L 427.658848 221.925626 
L 428.593483 221.925626 
L 428.780409 221.730093 
L 429.715044 221.730093 
L 429.90197 221.534551 
L 430.836605 221.534551 
L 431.023532 221.339001 
L 432.145093 221.339001 
L 432.332019 221.142357 
L 433.266654 221.142357 
L 433.453581 220.94679 
L 434.388215 220.94679 
L 434.575142 220.751214 
L 435.696703 220.751214 
L 435.88363 220.561557 
L 436.818264 220.561557 
L 437.005191 220.365965 
L 437.939825 220.365965 
L 438.126752 220.170364 
L 439.061386 220.170364 
L 439.248313 219.974756 
L 440.182947 219.974756 
L 440.369874 219.828711 
L 441.117581 219.828711 
L 441.304508 219.665691 
L 442.052215 219.665691 
L 442.283745 219.522962 
L 443.173776 219.522962 
L 443.360703 219.349208 
L 444.108411 219.349208 
L 444.295338 219.186171 
L 445.229972 219.186171 
L 445.416899 219.024442 
L 446.164606 219.024442 
L 446.351533 218.861394 
L 447.09924 218.861394 
L 447.286167 218.698339 
L 448.033874 218.698339 
L 448.220801 218.535279 
L 449.155436 218.535279 
L 449.342362 218.364545 
L 450.09007 218.364545 
L 450.276997 218.201473 
L 451.024704 218.201473 
L 451.211631 218.038394 
L 451.959338 218.038394 
L 452.146265 217.87531 
L 452.893972 217.87531 
L 453.080899 217.71222 
L 453.828607 217.71222 
L 454.015534 217.548463 
L 454.763241 217.548463 
L 454.950168 217.385361 
L 455.697875 217.385361 
L 455.884802 217.222253 
L 456.632509 217.222253 
L 456.819436 217.05914 
L 457.567144 217.05914 
L 457.75407 216.896021 
L 458.501778 216.896021 
L 458.688705 216.735372 
L 459.436412 216.735372 
L 459.623339 216.572241 
L 460.557973 216.572241 
L 460.7449 216.406276 
L 461.492607 216.406276 
L 461.679534 216.243133 
L 462.427242 216.243133 
L 462.614168 216.079042 
L 463.361876 216.079042 
L 463.548803 215.915887 
L 464.29651 215.915887 
L 464.483437 215.752727 
L 465.231144 215.752727 
L 465.418071 215.58956 
L 466.165778 215.58956 
L 466.352705 215.426388 
L 467.100413 215.426388 
L 467.28734 215.26129 
L 468.035047 215.26129 
L 468.221974 215.098106 
L 468.969681 215.098106 
L 469.156608 214.934916 
L 469.904315 214.934916 
L 470.091242 214.77172 
L 470.83895 214.77172 
L 471.025876 214.608519 
L 471.773584 214.608519 
L 471.960511 214.448241 
L 472.708218 214.448241 
L 472.895145 214.285028 
L 473.642852 214.285028 
L 473.829779 214.121808 
L 474.577487 214.121808 
L 474.764413 213.958584 
L 475.512121 213.958584 
L 475.699048 213.795353 
L 476.259828 213.795353 
L 476.633682 213.666329 
L 477.007536 213.666329 
L 477.381389 213.535735 
L 477.755243 213.535735 
L 478.129097 213.405139 
L 478.50295 213.405139 
L 478.876804 213.274538 
L 479.250658 213.274538 
L 479.624511 213.143933 
L 479.998365 213.143933 
L 480.372219 213.013325 
L 480.746072 213.013325 
L 481.119926 212.882463 
L 481.49378 212.882463 
L 481.867634 212.751848 
L 482.241487 212.751848 
L 482.615341 212.621228 
L 482.615341 212.621228 
" style="fill:none;stroke:#a52a2a;stroke-linecap:square;stroke-width:1.5;"/>
   </g>
   <g id="patch_3">
    <path d="M 56.50625 294.118125 
L 56.50625 22.318125 
" style="fill:none;stroke:#000000;stroke-linecap:square;stroke-linejoin:miter;stroke-width:0.8;"/>
   </g>
   <g id="patch_4">
    <path d="M 502.90625 294.118125 
L 502.90625 22.318125 
" style="fill:none;stroke:#000000;stroke-linecap:square;stroke-linejoin:miter;stroke-width:0.8;"/>
   </g>
   <g id="patch_5">
    <path d="M 56.50625 294.118125 
L 502.90625 294.118125 
" style="fill:none;stroke:#000000;stroke-linecap:square;stroke-linejoin:miter;stroke-width:0.8;"/>
   </g>
   <g id="patch_6">
    <path d="M 56.50625 22.318125 
L 502.90625 22.318125 
" style="fill:none;stroke:#000000;stroke-linecap:square;stroke-linejoin:miter;stroke-width:0.8;"/>
   </g>
   <g id="text_17">
    <!-- Pool Composition -->
    <g transform="translate(227.91875 16.318125)scale(0.12 -0.12)">
     <defs>
      <path d="M 1259 4147 
L 1259 2394 
L 2053 2394 
Q 2494 2394 2734 2622 
Q 2975 2850 2975 3272 
Q 2975 3691 2734 3919 
Q 2494 4147 2053 4147 
L 1259 4147 
z
M 628 4666 
L 2053 4666 
Q 2838 4666 3239 4311 
Q 3641 3956 3641 3272 
Q 3641 2581 3239 2228 
Q 2838 1875 2053 1875 
L 1259 1875 
L 1259 0 
L 628 0 
L 628 4666 
z
" id="DejaVuSans-50" transform="scale(0.015625)"/>
      <path d="M 4122 4306 
L 4122 3641 
Q 3803 3938 3442 4084 
Q 3081 4231 2675 4231 
Q 1875 4231 1450 3742 
Q 1025 3253 1025 2328 
Q 1025 1406 1450 917 
Q 1875 428 2675 428 
Q 3081 428 3442 575 
Q 3803 722 4122 1019 
L 4122 359 
Q 3791 134 3420 21 
Q 3050 -91 2638 -91 
Q 1578 -91 968 557 
Q 359 1206 359 2328 
Q 359 3453 968 4101 
Q 1578 4750 2638 4750 
Q 3056 4750 3426 4639 
Q 3797 4528 4122 4306 
z
" id="DejaVuSans-43" transform="scale(0.015625)"/>
      <path d="M 3328 2828 
Q 3544 3216 3844 3400 
Q 4144 3584 4550 3584 
Q 5097 3584 5394 3201 
Q 5691 2819 5691 2113 
L 5691 0 
L 5113 0 
L 5113 2094 
Q 5113 2597 4934 2840 
Q 4756 3084 4391 3084 
Q 3944 3084 3684 2787 
Q 3425 2491 3425 1978 
L 3425 0 
L 2847 0 
L 2847 2094 
Q 2847 2600 2669 2842 
Q 2491 3084 2119 3084 
Q 1678 3084 1418 2786 
Q 1159 2488 1159 1978 
L 1159 0 
L 581 0 
L 581 3500 
L 1159 3500 
L 1159 2956 
Q 1356 3278 1631 3431 
Q 1906 3584 2284 3584 
Q 2666 3584 2933 3390 
Q 3200 3197 3328 2828 
z
" id="DejaVuSans-6d" transform="scale(0.015625)"/>
      <path d="M 1159 525 
L 1159 -1331 
L 581 -1331 
L 581 3500 
L 1159 3500 
L 1159 2969 
Q 1341 3281 1617 3432 
Q 1894 3584 2278 3584 
Q 2916 3584 3314 3078 
Q 3713 2572 3713 1747 
Q 3713 922 3314 415 
Q 2916 -91 2278 -91 
Q 1894 -91 1617 61 
Q 1341 213 1159 525 
z
M 3116 1747 
Q 3116 2381 2855 2742 
Q 2594 3103 2138 3103 
Q 1681 3103 1420 2742 
Q 1159 2381 1159 1747 
Q 1159 1113 1420 752 
Q 1681 391 2138 391 
Q 2594 391 2855 752 
Q 3116 1113 3116 1747 
z
" id="DejaVuSans-70" transform="scale(0.015625)"/>
     </defs>
     <use xlink:href="#DejaVuSans-50"/>
     <use x="56.677734" xlink:href="#DejaVuSans-6f"/>
     <use x="117.859375" xlink:href="#DejaVuSans-6f"/>
     <use x="179.041016" xlink:href="#DejaVuSans-6c"/>
     <use x="206.824219" xlink:href="#DejaVuSans-20"/>
     <use x="238.611328" xlink:href="#DejaVuSans-43"/>
     <use x="308.435547" xlink:href="#DejaVuSans-6f"/>
     <use x="369.617188" xlink:href="#DejaVuSans-6d"/>
     <use x="467.029297" xlink:href="#DejaVuSans-70"/>
     <use x="530.505859" xlink:href="#DejaVuSans-6f"/>
     <use x="591.6875" xlink:href="#DejaVuSans-73"/>
     <use x="643.787109" xlink:href="#DejaVuSans-69"/>
     <use x="671.570312" xlink:href="#DejaVuSans-74"/>
     <use x="710.779297" xlink:href="#DejaVuSans-69"/>
     <use x="738.5625" xlink:href="#DejaVuSans-6f"/>
     <use x="799.744141" xlink:href="#DejaVuSans-6e"/>
    </g>
   </g>
   <g id="legend_1">
    <g id="patch_7">
     <path d="M 63.50625 59.674375 
L 130.0375 59.674375 
Q 132.0375 59.674375 132.0375 57.674375 
L 132.0375 29.318125 
Q 132.0375 27.318125 130.0375 27.318125 
L 63.50625 27.318125 
Q 61.50625 27.318125 61.50625 29.318125 
L 61.50625 57.674375 
Q 61.50625 59.674375 63.50625 59.674375 
z
" style="fill:#ffffff;opacity:0.8;stroke:#cccccc;stroke-linejoin:miter;"/>
    </g>
    <g id="line2d_31">
     <path d="M 65.50625 35.416562 
L 85.50625 35.416562 
" style="fill:none;stroke:#0000ff;stroke-linecap:square;stroke-width:1.5;"/>
    </g>
    <g id="line2d_32"/>
    <g id="text_18">
     <!-- LUSD -->
     <g transform="translate(93.50625 38.916562)scale(0.1 -0.1)">
      <defs>
       <path d="M 628 4666 
L 1259 4666 
L 1259 531 
L 3531 531 
L 3531 0 
L 628 0 
L 628 4666 
z
" id="DejaVuSans-4c" transform="scale(0.015625)"/>
       <path d="M 556 4666 
L 1191 4666 
L 1191 1831 
Q 1191 1081 1462 751 
Q 1734 422 2344 422 
Q 2950 422 3222 751 
Q 3494 1081 3494 1831 
L 3494 4666 
L 4128 4666 
L 4128 1753 
Q 4128 841 3676 375 
Q 3225 -91 2344 -91 
Q 1459 -91 1007 375 
Q 556 841 556 1753 
L 556 4666 
z
" id="DejaVuSans-55" transform="scale(0.015625)"/>
       <path d="M 3425 4513 
L 3425 3897 
Q 3066 4069 2747 4153 
Q 2428 4238 2131 4238 
Q 1616 4238 1336 4038 
Q 1056 3838 1056 3469 
Q 1056 3159 1242 3001 
Q 1428 2844 1947 2747 
L 2328 2669 
Q 3034 2534 3370 2195 
Q 3706 1856 3706 1288 
Q 3706 609 3251 259 
Q 2797 -91 1919 -91 
Q 1588 -91 1214 -16 
Q 841 59 441 206 
L 441 856 
Q 825 641 1194 531 
Q 1563 422 1919 422 
Q 2459 422 2753 634 
Q 3047 847 3047 1241 
Q 3047 1584 2836 1778 
Q 2625 1972 2144 2069 
L 1759 2144 
Q 1053 2284 737 2584 
Q 422 2884 422 3419 
Q 422 4038 858 4394 
Q 1294 4750 2059 4750 
Q 2388 4750 2728 4690 
Q 3069 4631 3425 4513 
z
" id="DejaVuSans-53" transform="scale(0.015625)"/>
      </defs>
      <use xlink:href="#DejaVuSans-4c"/>
      <use x="50.712891" xlink:href="#DejaVuSans-55"/>
      <use x="123.90625" xlink:href="#DejaVuSans-53"/>
      <use x="187.382812" xlink:href="#DejaVuSans-44"/>
     </g>
    </g>
    <g id="line2d_33">
     <path d="M 65.50625 50.094688 
L 85.50625 50.094688 
" style="fill:none;stroke:#a52a2a;stroke-linecap:square;stroke-width:1.5;"/>
    </g>
    <g id="line2d_34"/>
    <g id="text_19">
     <!-- staBAL -->
     <g transform="translate(93.50625 53.594688)scale(0.1 -0.1)">
      <defs>
       <path d="M 1259 2228 
L 1259 519 
L 2272 519 
Q 2781 519 3026 730 
Q 3272 941 3272 1375 
Q 3272 1813 3026 2020 
Q 2781 2228 2272 2228 
L 1259 2228 
z
M 1259 4147 
L 1259 2741 
L 2194 2741 
Q 2656 2741 2882 2914 
Q 3109 3088 3109 3444 
Q 3109 3797 2882 3972 
Q 2656 4147 2194 4147 
L 1259 4147 
z
M 628 4666 
L 2241 4666 
Q 2963 4666 3353 4366 
Q 3744 4066 3744 3513 
Q 3744 3084 3544 2831 
Q 3344 2578 2956 2516 
Q 3422 2416 3680 2098 
Q 3938 1781 3938 1306 
Q 3938 681 3513 340 
Q 3088 0 2303 0 
L 628 0 
L 628 4666 
z
" id="DejaVuSans-42" transform="scale(0.015625)"/>
       <path d="M 2188 4044 
L 1331 1722 
L 3047 1722 
L 2188 4044 
z
M 1831 4666 
L 2547 4666 
L 4325 0 
L 3669 0 
L 3244 1197 
L 1141 1197 
L 716 0 
L 50 0 
L 1831 4666 
z
" id="DejaVuSans-41" transform="scale(0.015625)"/>
      </defs>
      <use xlink:href="#DejaVuSans-73"/>
      <use x="52.099609" xlink:href="#DejaVuSans-74"/>
      <use x="91.308594" xlink:href="#DejaVuSans-61"/>
      <use x="152.587891" xlink:href="#DejaVuSans-42"/>
      <use x="221.191406" xlink:href="#DejaVuSans-41"/>
      <use x="289.599609" xlink:href="#DejaVuSans-4c"/>
     </g>
    </g>
   </g>
  </g>
  <g id="axes_2">
   <g id="matplotlib.axis_3">
    <g id="ytick_8">
     <g id="line2d_35">
      <defs>
       <path d="M 0 0 
L 3.5 0 
" id="m2feaebd33a" style="stroke:#000000;stroke-width:0.8;"/>
      </defs>
      <g>
       <use style="stroke:#000000;stroke-width:0.8;" x="502.90625" xlink:href="#m2feaebd33a" y="281.76358"/>
      </g>
     </g>
     <g id="text_20">
      <!-- 0 -->
      <g transform="translate(509.90625 285.562798)scale(0.1 -0.1)">
       <use xlink:href="#DejaVuSans-30"/>
      </g>
     </g>
    </g>
    <g id="ytick_9">
     <g id="line2d_36">
      <g>
       <use style="stroke:#000000;stroke-width:0.8;" x="502.90625" xlink:href="#m2feaebd33a" y="249.44299"/>
      </g>
     </g>
     <g id="text_21">
      <!-- 500 -->
      <g transform="translate(509.90625 253.242208)scale(0.1 -0.1)">
       <use xlink:href="#DejaVuSans-35"/>
       <use x="63.623047" xlink:href="#DejaVuSans-30"/>
       <use x="127.246094" xlink:href="#DejaVuSans-30"/>
      </g>
     </g>
    </g>
    <g id="ytick_10">
     <g id="line2d_37">
      <g>
       <use style="stroke:#000000;stroke-width:0.8;" x="502.90625" xlink:href="#m2feaebd33a" y="217.1224"/>
      </g>
     </g>
     <g id="text_22">
      <!-- 1000 -->
      <g transform="translate(509.90625 220.921619)scale(0.1 -0.1)">
       <use xlink:href="#DejaVuSans-31"/>
       <use x="63.623047" xlink:href="#DejaVuSans-30"/>
       <use x="127.246094" xlink:href="#DejaVuSans-30"/>
       <use x="190.869141" xlink:href="#DejaVuSans-30"/>
      </g>
     </g>
    </g>
    <g id="ytick_11">
     <g id="line2d_38">
      <g>
       <use style="stroke:#000000;stroke-width:0.8;" x="502.90625" xlink:href="#m2feaebd33a" y="184.80181"/>
      </g>
     </g>
     <g id="text_23">
      <!-- 1500 -->
      <g transform="translate(509.90625 188.601029)scale(0.1 -0.1)">
       <use xlink:href="#DejaVuSans-31"/>
       <use x="63.623047" xlink:href="#DejaVuSans-35"/>
       <use x="127.246094" xlink:href="#DejaVuSans-30"/>
       <use x="190.869141" xlink:href="#DejaVuSans-30"/>
      </g>
     </g>
    </g>
    <g id="ytick_12">
     <g id="line2d_39">
      <g>
       <use style="stroke:#000000;stroke-width:0.8;" x="502.90625" xlink:href="#m2feaebd33a" y="152.48122"/>
      </g>
     </g>
     <g id="text_24">
      <!-- 2000 -->
      <g transform="translate(509.90625 156.280439)scale(0.1 -0.1)">
       <use xlink:href="#DejaVuSans-32"/>
       <use x="63.623047" xlink:href="#DejaVuSans-30"/>
       <use x="127.246094" xlink:href="#DejaVuSans-30"/>
       <use x="190.869141" xlink:href="#DejaVuSans-30"/>
      </g>
     </g>
    </g>
    <g id="ytick_13">
     <g id="line2d_40">
      <g>
       <use style="stroke:#000000;stroke-width:0.8;" x="502.90625" xlink:href="#m2feaebd33a" y="120.16063"/>
      </g>
     </g>
     <g id="text_25">
      <!-- 2500 -->
      <g transform="translate(509.90625 123.959849)scale(0.1 -0.1)">
       <use xlink:href="#DejaVuSans-32"/>
       <use x="63.623047" xlink:href="#DejaVuSans-35"/>
       <use x="127.246094" xlink:href="#DejaVuSans-30"/>
       <use x="190.869141" xlink:href="#DejaVuSans-30"/>
      </g>
     </g>
    </g>
    <g id="ytick_14">
     <g id="line2d_41">
      <g>
       <use style="stroke:#000000;stroke-width:0.8;" x="502.90625" xlink:href="#m2feaebd33a" y="87.840041"/>
      </g>
     </g>
     <g id="text_26">
      <!-- 3000 -->
      <g transform="translate(509.90625 91.639259)scale(0.1 -0.1)">
       <use xlink:href="#DejaVuSans-33"/>
       <use x="63.623047" xlink:href="#DejaVuSans-30"/>
       <use x="127.246094" xlink:href="#DejaVuSans-30"/>
       <use x="190.869141" xlink:href="#DejaVuSans-30"/>
      </g>
     </g>
    </g>
    <g id="ytick_15">
     <g id="line2d_42">
      <g>
       <use style="stroke:#000000;stroke-width:0.8;" x="502.90625" xlink:href="#m2feaebd33a" y="55.519451"/>
      </g>
     </g>
     <g id="text_27">
      <!-- 3500 -->
      <g transform="translate(509.90625 59.31867)scale(0.1 -0.1)">
       <use xlink:href="#DejaVuSans-33"/>
       <use x="63.623047" xlink:href="#DejaVuSans-35"/>
       <use x="127.246094" xlink:href="#DejaVuSans-30"/>
       <use x="190.869141" xlink:href="#DejaVuSans-30"/>
      </g>
     </g>
    </g>
    <g id="ytick_16">
     <g id="line2d_43">
      <g>
       <use style="stroke:#000000;stroke-width:0.8;" x="502.90625" xlink:href="#m2feaebd33a" y="23.198861"/>
      </g>
     </g>
     <g id="text_28">
      <!-- 4000 -->
      <g transform="translate(509.90625 26.99808)scale(0.1 -0.1)">
       <defs>
        <path d="M 2419 4116 
L 825 1625 
L 2419 1625 
L 2419 4116 
z
M 2253 4666 
L 3047 4666 
L 3047 1625 
L 3713 1625 
L 3713 1100 
L 3047 1100 
L 3047 0 
L 2419 0 
L 2419 1100 
L 313 1100 
L 313 1709 
L 2253 4666 
z
" id="DejaVuSans-34" transform="scale(0.015625)"/>
       </defs>
       <use xlink:href="#DejaVuSans-34"/>
       <use x="63.623047" xlink:href="#DejaVuSans-30"/>
       <use x="127.246094" xlink:href="#DejaVuSans-30"/>
       <use x="190.869141" xlink:href="#DejaVuSans-30"/>
      </g>
     </g>
    </g>
    <g id="text_29">
     <!-- ETH -->
     <g transform="translate(546.954688 168.191563)rotate(-90)scale(0.1 -0.1)">
      <defs>
       <path d="M 628 4666 
L 3578 4666 
L 3578 4134 
L 1259 4134 
L 1259 2753 
L 3481 2753 
L 3481 2222 
L 1259 2222 
L 1259 531 
L 3634 531 
L 3634 0 
L 628 0 
L 628 4666 
z
" id="DejaVuSans-45" transform="scale(0.015625)"/>
       <path d="M -19 4666 
L 3928 4666 
L 3928 4134 
L 2272 4134 
L 2272 0 
L 1638 0 
L 1638 4134 
L -19 4134 
L -19 4666 
z
" id="DejaVuSans-54" transform="scale(0.015625)"/>
       <path d="M 628 4666 
L 1259 4666 
L 1259 2753 
L 3553 2753 
L 3553 4666 
L 4184 4666 
L 4184 0 
L 3553 0 
L 3553 2222 
L 1259 2222 
L 1259 0 
L 628 0 
L 628 4666 
z
" id="DejaVuSans-48" transform="scale(0.015625)"/>
      </defs>
      <use xlink:href="#DejaVuSans-45"/>
      <use x="63.183594" xlink:href="#DejaVuSans-54"/>
      <use x="124.267578" xlink:href="#DejaVuSans-48"/>
     </g>
    </g>
   </g>
   <g id="line2d_44">
    <path clip-path="url(#p4884136c7d)" d="M 76.797159 281.76358 
L 77.171013 281.76358 
L 77.250872 281.601847 
L 77.35794 281.76358 
L 234.93727 281.76358 
L 235.078868 278.354404 
L 235.124197 281.76358 
L 245.965954 281.76358 
L 246.024836 281.098073 
L 246.152881 281.76358 
L 384.665674 281.76358 
L 384.710017 281.270367 
L 384.710017 34.67267 
L 384.710017 279.864716 
L 384.852601 281.76358 
L 411.396213 281.76358 
L 411.472593 262.606967 
L 411.58314 281.76358 
L 441.491435 281.76358 
L 441.607797 230.161114 
L 441.678362 281.76358 
L 442.239142 281.76358 
L 442.283745 281.589048 
L 442.426069 281.76358 
L 442.5038 277.884936 
L 442.506915 281.711867 
L 442.799923 281.76358 
L 448.407728 281.76358 
L 448.574301 281.610574 
L 448.594655 281.76358 
L 448.624304 265.560621 
L 448.625706 281.698938 
L 448.968509 281.76358 
L 482.615341 281.76358 
L 482.615341 281.76358 
" style="fill:none;stroke:#ff0000;stroke-linecap:square;stroke-width:1.5;"/>
   </g>
   <g id="patch_8">
    <path d="M 56.50625 294.118125 
L 56.50625 22.318125 
" style="fill:none;stroke:#000000;stroke-linecap:square;stroke-linejoin:miter;stroke-width:0.8;"/>
   </g>
   <g id="patch_9">
    <path d="M 502.90625 294.118125 
L 502.90625 22.318125 
" style="fill:none;stroke:#000000;stroke-linecap:square;stroke-linejoin:miter;stroke-width:0.8;"/>
   </g>
   <g id="patch_10">
    <path d="M 56.50625 294.118125 
L 502.90625 294.118125 
" style="fill:none;stroke:#000000;stroke-linecap:square;stroke-linejoin:miter;stroke-width:0.8;"/>
   </g>
   <g id="patch_11">
    <path d="M 56.50625 22.318125 
L 502.90625 22.318125 
" style="fill:none;stroke:#000000;stroke-linecap:square;stroke-linejoin:miter;stroke-width:0.8;"/>
   </g>
   <g id="legend_2">
    <g id="patch_12">
     <path d="M 388.06875 44.99625 
L 495.90625 44.99625 
Q 497.90625 44.99625 497.90625 42.99625 
L 497.90625 29.318125 
Q 497.90625 27.318125 495.90625 27.318125 
L 388.06875 27.318125 
Q 386.06875 27.318125 386.06875 29.318125 
L 386.06875 42.99625 
Q 386.06875 44.99625 388.06875 44.99625 
z
" style="fill:#ffffff;opacity:0.8;stroke:#cccccc;stroke-linejoin:miter;"/>
    </g>
    <g id="line2d_45">
     <path d="M 390.06875 35.416563 
L 410.06875 35.416563 
" style="fill:none;stroke:#ff0000;stroke-linecap:square;stroke-width:1.5;"/>
    </g>
    <g id="line2d_46"/>
    <g id="text_30">
     <!-- Liquidated ETH -->
     <g transform="translate(418.06875 38.916563)scale(0.1 -0.1)">
      <defs>
       <path d="M 947 1747 
Q 947 1113 1208 752 
Q 1469 391 1925 391 
Q 2381 391 2643 752 
Q 2906 1113 2906 1747 
Q 2906 2381 2643 2742 
Q 2381 3103 1925 3103 
Q 1469 3103 1208 2742 
Q 947 2381 947 1747 
z
M 2906 525 
Q 2725 213 2448 61 
Q 2172 -91 1784 -91 
Q 1150 -91 751 415 
Q 353 922 353 1747 
Q 353 2572 751 3078 
Q 1150 3584 1784 3584 
Q 2172 3584 2448 3432 
Q 2725 3281 2906 2969 
L 2906 3500 
L 3481 3500 
L 3481 -1331 
L 2906 -1331 
L 2906 525 
z
" id="DejaVuSans-71" transform="scale(0.015625)"/>
       <path d="M 544 1381 
L 544 3500 
L 1119 3500 
L 1119 1403 
Q 1119 906 1312 657 
Q 1506 409 1894 409 
Q 2359 409 2629 706 
Q 2900 1003 2900 1516 
L 2900 3500 
L 3475 3500 
L 3475 0 
L 2900 0 
L 2900 538 
Q 2691 219 2414 64 
Q 2138 -91 1772 -91 
Q 1169 -91 856 284 
Q 544 659 544 1381 
z
M 1991 3584 
L 1991 3584 
z
" id="DejaVuSans-75" transform="scale(0.015625)"/>
       <path d="M 2906 2969 
L 2906 4863 
L 3481 4863 
L 3481 0 
L 2906 0 
L 2906 525 
Q 2725 213 2448 61 
Q 2172 -91 1784 -91 
Q 1150 -91 751 415 
Q 353 922 353 1747 
Q 353 2572 751 3078 
Q 1150 3584 1784 3584 
Q 2172 3584 2448 3432 
Q 2725 3281 2906 2969 
z
M 947 1747 
Q 947 1113 1208 752 
Q 1469 391 1925 391 
Q 2381 391 2643 752 
Q 2906 1113 2906 1747 
Q 2906 2381 2643 2742 
Q 2381 3103 1925 3103 
Q 1469 3103 1208 2742 
Q 947 2381 947 1747 
z
" id="DejaVuSans-64" transform="scale(0.015625)"/>
      </defs>
      <use xlink:href="#DejaVuSans-4c"/>
      <use x="55.712891" xlink:href="#DejaVuSans-69"/>
      <use x="83.496094" xlink:href="#DejaVuSans-71"/>
      <use x="146.972656" xlink:href="#DejaVuSans-75"/>
      <use x="210.351562" xlink:href="#DejaVuSans-69"/>
      <use x="238.134766" xlink:href="#DejaVuSans-64"/>
      <use x="301.611328" xlink:href="#DejaVuSans-61"/>
      <use x="362.890625" xlink:href="#DejaVuSans-74"/>
      <use x="402.099609" xlink:href="#DejaVuSans-65"/>
      <use x="463.623047" xlink:href="#DejaVuSans-64"/>
      <use x="527.099609" xlink:href="#DejaVuSans-20"/>
      <use x="558.886719" xlink:href="#DejaVuSans-45"/>
      <use x="622.070312" xlink:href="#DejaVuSans-54"/>
      <use x="683.154297" xlink:href="#DejaVuSans-48"/>
     </g>
    </g>
   </g>
  </g>
 </g>
 <defs>
  <clipPath id="p4884136c7d">
   <rect height="271.8" width="446.4" x="56.50625" y="22.318125"/>
  </clipPath>
 </defs>
</svg>
